<svg xmlns="http://www.w3.org/2000/svg" viewBox="0 0 612 183.17"><defs><style>.cls-1,.cls-2{fill:#fff;}.cls-2,.cls-3{stroke:#231815;stroke-width:3px;}.cls-2,.cls-3,.cls-4,.cls-6{stroke-miterlimit:10;}.cls-3,.cls-4,.cls-6{fill:none;}.cls-4{stroke:#727171;stroke-width:1.5px;stroke-dasharray:3;}.cls-5{font-size:14px;fill:#595757;font-family:MicrosoftYaHei-Bold, Microsoft YaHei;font-weight:700;}.cls-6{stroke:#898989;}.cls-7{fill:#898989;}</style></defs><title>markov-model-exmple</title><g id="图层_2" data-name="图层 2"><g id="图层_1-2" data-name="图层 1"><rect class="cls-1" y="1.5" width="612" height="180.35"/><rect class="cls-2" x="216" y="1.5" width="180.17" height="180.17" rx="15.5" ry="15.5"/><line class="cls-3" x1="279" y1="91.5" x2="324" y2="91.5"/><line class="cls-3" x1="306" y1="118.5" x2="306" y2="55.5"/><line class="cls-3" x1="306" y1="181.5" x2="306" y2="154.5"/><line class="cls-3" x1="396" y1="91.5" x2="378" y2="91.5"/><line class="cls-3" x1="306" y1="1.5" x2="306" y2="37.5"/><line class="cls-3" x1="216" y1="91.5" x2="243" y2="91.5"/><rect class="cls-4" x="243" y="28.5" width="36" height="36" rx="9.75" ry="9.75"/><text class="cls-5" transform="translate(255.74 52)">A</text><rect class="cls-4" x="243" y="118.5" width="36" height="36" rx="9.75" ry="9.75"/><text class="cls-5" transform="translate(255.46 142)">D</text><rect class="cls-4" x="333" y="28.5" width="36" height="36" rx="9.75" ry="9.75"/><text class="cls-5" transform="translate(346.21 52)">B</text><rect class="cls-4" x="333" y="118.5" width="36" height="36" rx="9.75" ry="9.75"/><text class="cls-5" transform="translate(346.29 142)">C</text><line class="cls-6" x1="258.96" y1="97.67" x2="258.96" y2="84.64"/><polygon class="cls-7" points="260.65 86.63 258.96 84.93 257.26 86.63 257.26 85.19 258.96 83.49 260.65 85.19 260.65 86.63"/><line class="cls-6" x1="263.04" y1="85.33" x2="263.04" y2="98.36"/><polygon class="cls-7" points="261.35 96.37 263.04 98.07 264.74 96.37 264.74 97.81 263.04 99.51 261.35 97.81 261.35 96.37"/><line class="cls-6" x1="353.04" y1="85.33" x2="353.04" y2="98.36"/><polygon class="cls-7" points="351.35 96.37 353.04 98.07 354.74 96.37 354.74 97.81 353.04 99.51 351.35 97.81 351.35 96.37"/><line class="cls-6" x1="348.96" y1="97.67" x2="348.96" y2="84.64"/><polygon class="cls-7" points="350.65 86.63 348.96 84.93 347.26 86.63 347.26 85.19 348.96 83.49 350.65 85.19 350.65 86.63"/><line class="cls-6" x1="299.83" y1="134.46" x2="312.86" y2="134.46"/><polygon class="cls-7" points="310.87 136.15 312.57 134.46 310.87 132.76 312.31 132.76 314.01 134.46 312.31 136.15 310.87 136.15"/><line class="cls-6" x1="312.17" y1="138.54" x2="299.14" y2="138.54"/><polygon class="cls-7" points="301.13 136.85 299.43 138.54 301.13 140.24 299.69 140.24 297.99 138.54 299.69 136.85 301.13 136.85"/><line class="cls-6" x1="299.83" y1="44.46" x2="312.86" y2="44.46"/><polygon class="cls-7" points="310.87 46.15 312.57 44.46 310.87 42.76 312.31 42.76 314.01 44.46 312.31 46.15 310.87 46.15"/><line class="cls-6" x1="312.17" y1="48.54" x2="299.14" y2="48.54"/><polygon class="cls-7" points="301.13 46.85 299.43 48.54 301.13 50.24 299.69 50.24 297.99 48.54 299.69 46.85 301.13 46.85"/></g></g></svg>