<?xml version="1.0" encoding="UTF-8" standalone="no"?>
<!-- Created with Inkscape (http://www.inkscape.org/) -->

<svg version="1.1" id="svg2" width="793.70667" height="793.70667" viewBox="100 20 600 520"
   sodipodi:docname="alcofish.ai" xmlns:inkscape="http://www.inkscape.org/namespaces/inkscape"
   xmlns:sodipodi="http://sodipodi.sourceforge.net/DTD/sodipodi-0.dtd" xmlns="http://www.w3.org/2000/svg"
   xmlns:svg="http://www.w3.org/2000/svg">
   <defs id="defs6">
      <clipPath clipPathUnits="userSpaceOnUse" id="clipPath16">
         <path d="M 0,841.89 H 595.28 V 0 H 0 Z" id="path14" />
      </clipPath>
   </defs>
   <style>
      path {
         fill: #231916;
      }

      @media (prefers-color-scheme: dark) {
         svg {
            background-color: #00000000
         }

         path {
            fill: white;
         }
      }
   </style>
   <sodipodi:namedview id="namedview4" pagecolor="#ffffff" bordercolor="#000000" borderopacity="0.25"
      inkscape:showpageshadow="2" inkscape:pageopacity="0.0" inkscape:pagecheckerboard="0"
      inkscape:deskcolor="#d1d1d1" />
   <g id="g8" inkscape:groupmode="layer" inkscape:label="alcofish"
      transform="matrix(1.3333333,0,0,-1.3333333,0,1122.52)">
      <g id="g10">
         <g id="g12" clip-path="url(#clipPath16)">
            <g id="g18" transform="translate(150.0967,585.1459)">
               <path
                  d="M 0,0 C 0,0.292 -0.11,0.622 -0.33,0.989 -0.549,1.355 -0.828,1.707 -1.165,2.043 -1.501,2.38 -1.875,2.666 -2.285,2.9 -2.696,3.135 -3.076,3.252 -3.428,3.252 -4.336,3.252 -5.179,3.105 -5.955,2.813 -6.731,2.52 -7.456,2.146 -8.13,1.692 -8.804,1.237 -9.426,0.718 -9.998,0.132 c -0.571,-0.587 -1.076,-1.172 -1.516,-1.758 -1.054,-1.348 -2.131,-2.996 -3.23,-4.944 -1.098,-1.949 -2.094,-3.992 -2.988,-6.13 -0.894,-2.139 -1.626,-4.248 -2.197,-6.328 -0.571,-2.081 -0.857,-3.927 -0.857,-5.537 0,-0.821 0.366,-1.524 1.099,-2.11 0.731,-0.586 1.713,-0.879 2.944,-0.879 0.703,0 1.545,0.315 2.527,0.945 0.981,0.63 2.006,1.465 3.076,2.505 1.069,1.04 2.124,2.219 3.164,3.538 1.039,1.318 1.955,2.68 2.747,4.087 1.494,2.636 2.739,5.295 3.735,7.976 C -0.499,-5.823 0,-2.988 0,0 m 35.728,2.021 c 0,-0.263 -0.213,-0.996 -0.638,-2.197 -0.424,-1.201 -1.04,-2.658 -1.845,-4.372 -0.807,-1.714 -1.787,-3.597 -2.945,-5.647 -1.157,-2.051 -2.454,-4.043 -3.889,-5.977 -1.758,-2.402 -3.501,-4.497 -5.229,-6.284 -1.729,-1.787 -3.377,-3.274 -4.944,-4.461 -1.568,-1.186 -3.01,-2.08 -4.329,-2.68 -1.318,-0.601 -2.461,-0.901 -3.428,-0.901 -1.611,0 -2.915,0.227 -3.911,0.681 -0.996,0.454 -1.817,1.143 -2.461,2.066 -0.644,0.922 -1.164,2.094 -1.56,3.515 -0.395,1.421 -0.784,3.098 -1.164,5.032 H -1.23 c -1.231,-1.875 -2.571,-3.729 -4.021,-5.559 -1.451,-1.831 -2.96,-3.472 -4.527,-4.922 -1.567,-1.45 -3.179,-2.63 -4.834,-3.538 -1.655,-0.908 -3.289,-1.362 -4.9,-1.362 -0.85,0 -1.743,0.154 -2.68,0.461 -0.938,0.308 -1.802,0.798 -2.593,1.473 -0.791,0.673 -1.45,1.53 -1.978,2.57 -0.527,1.04 -0.791,2.292 -0.791,3.758 0,1.289 0.161,2.761 0.484,4.416 0.322,1.655 0.761,3.384 1.318,5.186 0.556,1.802 1.193,3.618 1.912,5.449 0.717,1.831 1.479,3.566 2.285,5.208 0.805,1.64 1.618,3.126 2.439,4.46 0.82,1.333 1.611,2.395 2.373,3.186 0.879,0.938 1.911,1.89 3.098,2.856 1.187,0.967 2.498,1.846 3.933,2.637 1.435,0.791 2.973,1.443 4.614,1.956 C -3.457,9.543 -1.729,9.8 0.088,9.8 1.553,9.8 2.651,9.323 3.384,8.372 4.116,7.419 4.629,5.977 4.922,4.043 4.951,3.867 5.061,3.662 5.251,3.428 5.442,3.193 5.647,2.929 5.867,2.637 6.086,2.344 6.284,2.043 6.46,1.736 6.636,1.428 6.724,1.113 6.724,0.791 6.724,0.322 6.621,-0.257 6.416,-0.945 6.211,-1.633 5.983,-2.41 5.735,-3.274 5.486,-4.138 5.258,-5.076 5.054,-6.086 4.849,-7.097 4.746,-8.159 4.746,-9.272 c 0,-1.524 0.015,-3.15 0.044,-4.878 0.029,-1.729 0.198,-3.318 0.505,-4.768 0.308,-1.451 0.82,-2.659 1.538,-3.626 0.718,-0.967 1.765,-1.45 3.143,-1.45 0.703,0 1.545,0.292 2.526,0.879 0.982,0.586 2.066,1.406 3.252,2.461 1.187,1.054 2.432,2.314 3.736,3.779 1.303,1.465 2.643,3.076 4.021,4.834 1.582,2.021 2.959,4.021 4.131,5.999 1.171,1.977 2.197,3.735 3.076,5.273 0.879,1.538 1.626,2.783 2.241,3.735 0.615,0.952 1.143,1.429 1.582,1.429 h 0.044 c 0.498,-0.03 0.82,-0.176 0.967,-0.44 0.146,-0.264 0.219,-0.601 0.219,-1.011 V 2.505 c 0,-0.147 -0.015,-0.308 -0.043,-0.484"
                  style="fill-rule:nonzero;stroke:none" id="path20" />
            </g>
            <g id="g22" transform="translate(221.2441,577.1918)">
               <path
                  d="m 0,0 c 0,-1.377 -0.835,-3.531 -2.505,-6.46 -0.323,-0.557 -0.769,-1.224 -1.34,-1.999 -0.572,-0.777 -1.209,-1.583 -1.912,-2.417 -0.703,-0.835 -1.435,-1.686 -2.197,-2.549 -0.762,-0.865 -1.509,-1.663 -2.241,-2.395 -1.114,-1.114 -2.337,-2.198 -3.67,-3.252 -1.333,-1.055 -2.739,-2.007 -4.218,-2.857 -1.48,-0.85 -3.004,-1.531 -4.571,-2.043 -1.567,-0.513 -3.113,-0.769 -4.636,-0.769 -2.022,0 -3.911,0.366 -5.669,1.098 -1.758,0.732 -3.289,1.861 -4.592,3.384 -1.304,1.523 -2.329,3.435 -3.076,5.735 -0.748,2.3 -1.121,5.017 -1.121,8.152 0,2.138 0.102,4.372 0.308,6.702 0.204,2.329 0.468,4.665 0.791,7.009 0.322,2.344 0.681,4.665 1.076,6.965 0.396,2.3 0.798,4.519 1.209,6.658 0.263,1.465 0.49,2.665 0.681,3.603 0.19,0.938 0.358,1.802 0.505,2.593 0.147,0.791 0.279,1.589 0.396,2.395 0.116,0.806 0.263,1.809 0.439,3.01 0.117,0.82 0.227,1.545 0.33,2.176 0.102,0.63 0.182,1.149 0.242,1.56 0.116,0.703 0.314,1.377 0.593,2.021 0.278,0.644 0.63,1.216 1.054,1.714 0.425,0.498 0.916,0.894 1.473,1.187 0.556,0.292 1.171,0.439 1.845,0.439 1.407,0 2.446,-0.659 3.12,-1.977 -0.175,-0.909 -0.358,-1.78 -0.549,-2.615 -0.191,-0.835 -0.359,-1.721 -0.505,-2.659 -0.733,-3.691 -1.334,-6.68 -1.802,-8.965 -0.469,-2.285 -0.806,-3.896 -1.011,-4.834 -0.351,-1.845 -0.725,-3.838 -1.12,-5.976 -0.396,-2.139 -0.763,-4.322 -1.099,-6.548 -0.337,-2.227 -0.608,-4.424 -0.813,-6.592 -0.205,-2.168 -0.308,-4.19 -0.308,-6.064 0,-2.022 0.161,-3.861 0.484,-5.515 0.322,-1.656 0.842,-3.07 1.56,-4.241 0.718,-1.172 1.641,-2.081 2.768,-2.725 1.128,-0.644 2.498,-0.967 4.109,-0.967 1.758,0 3.487,0.389 5.186,1.165 1.699,0.776 3.332,1.765 4.9,2.966 1.567,1.201 3.054,2.527 4.46,3.977 1.406,1.451 2.696,2.849 3.867,4.197 0.938,1.113 1.758,2.072 2.461,2.879 0.703,0.805 1.289,1.486 1.758,2.043 0.381,0.439 0.813,0.894 1.297,1.362 0.483,0.469 0.929,0.703 1.34,0.703 C -0.235,1.274 0,0.85 0,0"
                  style="fill-rule:nonzero;stroke:none" id="path24" />
            </g>
            <g id="g26" transform="translate(272.4844,580.7953)">
               <path
                  d="M 0,0 C 0,-1.055 -0.381,-2.007 -1.143,-2.856 -1.406,-3.149 -1.817,-3.538 -2.373,-4.021 -2.93,-4.504 -3.428,-4.966 -3.867,-5.405 L -7.91,-9.448 c -0.762,-0.762 -1.472,-1.444 -2.132,-2.044 -0.659,-0.6 -1.237,-1.12 -1.735,-1.56 -0.85,-0.703 -1.868,-1.545 -3.055,-2.527 -1.186,-0.982 -2.556,-2.116 -4.108,-3.405 -3.048,-2.52 -5.86,-4.586 -8.438,-6.197 -2.578,-1.582 -5.339,-2.849 -8.284,-3.801 -2.944,-0.952 -6.057,-1.428 -9.338,-1.428 -2.021,-0.059 -3.831,0.292 -5.427,1.055 -1.597,0.761 -2.945,1.794 -4.043,3.098 -1.099,1.303 -1.934,2.834 -2.505,4.592 -0.571,1.758 -0.842,3.618 -0.813,5.581 0,3.896 0.828,7.793 2.483,11.689 1.655,3.896 3.86,7.735 6.614,11.514 1.494,1.992 3.295,3.896 5.405,5.713 2.08,1.816 3.97,2.725 5.669,2.725 0.908,0 1.948,-0.763 3.12,-2.286 0.586,-0.762 1.143,-1.575 1.67,-2.438 0.527,-0.865 1.011,-1.78 1.45,-2.747 0.879,-1.905 1.318,-3.281 1.318,-4.131 0,-0.85 -0.263,-1.949 -0.791,-3.296 -0.527,-1.347 -1.157,-2.021 -1.889,-2.021 -1.055,0 -1.934,0.717 -2.637,2.153 -0.352,0.732 -0.608,1.355 -0.769,1.868 -0.161,0.512 -0.345,1.061 -0.549,1.648 -0.675,1.757 -1.246,3.017 -1.714,3.779 -1.934,-0.352 -3.545,-1.304 -4.834,-2.857 -0.615,-0.762 -1.253,-1.677 -1.912,-2.746 -0.659,-1.07 -1.355,-2.278 -2.087,-3.626 -0.587,-1.054 -1.128,-2.241 -1.626,-3.559 -0.499,-1.319 -0.923,-2.674 -1.275,-4.065 -0.351,-1.392 -0.63,-2.784 -0.835,-4.175 -0.205,-1.391 -0.307,-2.688 -0.307,-3.889 0,-1.699 0.732,-3.355 2.197,-4.966 1.494,-1.553 3.105,-2.329 4.834,-2.329 3.75,0 7.31,0.659 10.679,1.978 3.368,1.318 6.606,3.076 9.712,5.273 3.076,2.138 6.196,4.643 9.36,7.515 1.582,1.435 3.083,2.79 4.504,4.065 1.421,1.274 2.776,2.497 4.065,3.669 2.139,1.875 3.912,2.813 5.318,2.813 C -0.205,1.187 0,0.791 0,0"
                  style="fill-rule:nonzero;stroke:none" id="path28" />
            </g>
            <g id="g30" transform="translate(294.8965,578.642)">
               <path
                  d="m 0,0 c 0,2.9 -0.828,5.17 -2.482,6.812 -1.656,1.64 -4.037,2.46 -7.142,2.46 -1.055,0 -2.125,-0.278 -3.208,-0.834 -1.084,-0.557 -2.125,-1.246 -3.12,-2.066 -0.996,-0.82 -1.912,-1.692 -2.747,-2.615 -0.835,-0.923 -1.531,-1.751 -2.087,-2.483 -0.557,-0.762 -1.172,-1.795 -1.846,-3.098 -0.674,-1.303 -1.311,-2.696 -1.911,-4.175 -0.601,-1.479 -1.099,-2.959 -1.495,-4.438 -0.395,-1.48 -0.593,-2.776 -0.593,-3.889 0,-0.674 0.132,-1.356 0.396,-2.044 0.263,-0.688 0.637,-1.303 1.12,-1.845 0.484,-0.543 1.062,-0.989 1.736,-1.341 0.674,-0.351 1.421,-0.527 2.241,-0.527 0.879,0 2.014,0.264 3.406,0.791 1.391,0.527 2.871,1.252 4.439,2.175 1.566,0.923 3.142,2.022 4.724,3.296 1.582,1.275 3.01,2.659 4.284,4.153 1.275,1.494 2.307,3.061 3.098,4.702 C -0.396,-3.325 0,-1.67 0,0 M 6.855,1.274 C 6.855,0.336 6.812,-0.557 6.724,-1.406 6.636,-2.256 6.504,-3.076 6.328,-3.867 6.152,-4.658 5.918,-5.457 5.625,-6.262 5.332,-7.068 4.98,-7.896 4.57,-8.745 4.16,-9.653 3.413,-10.738 2.329,-11.997 c -1.084,-1.26 -2.38,-2.564 -3.889,-3.911 -1.509,-1.348 -3.164,-2.681 -4.966,-3.999 -1.802,-1.319 -3.625,-2.505 -5.471,-3.56 -1.846,-1.054 -3.655,-1.905 -5.427,-2.549 -1.773,-0.644 -3.377,-0.966 -4.812,-0.966 -1.963,0 -3.677,0.329 -5.142,0.988 -1.465,0.66 -2.681,1.523 -3.647,2.593 -0.967,1.069 -1.692,2.292 -2.176,3.67 -0.483,1.377 -0.725,2.768 -0.725,4.174 0,0.938 0.117,2.007 0.352,3.208 0.234,1.202 0.542,2.446 0.923,3.736 0.38,1.289 0.835,2.607 1.362,3.955 0.527,1.347 1.083,2.637 1.67,3.867 0.586,1.23 1.186,2.373 1.802,3.428 0.615,1.054 1.215,1.948 1.801,2.68 1.026,1.289 2.264,2.549 3.714,3.78 1.45,1.23 3.039,2.321 4.768,3.274 1.728,0.951 3.581,1.72 5.559,2.307 1.977,0.586 4.021,0.879 6.13,0.879 1.582,0 3.135,-0.389 4.658,-1.165 C 0.337,13.616 1.692,12.568 2.879,11.25 4.065,9.932 5.024,8.408 5.757,6.68 6.489,4.951 6.855,3.149 6.855,1.274"
                  style="fill-rule:nonzero;stroke:none" id="path32" />
            </g>
            <g id="g34" transform="translate(362.7051,614.0619)">
               <path
                  d="M 0,0 C 0,-0.264 -0.029,-0.535 -0.088,-0.813 -0.146,-1.092 -0.271,-1.428 -0.461,-1.824 -0.652,-2.219 -0.924,-2.703 -1.275,-3.274 -1.627,-3.845 -2.08,-4.57 -2.637,-5.449 -2.871,-5.596 -3.164,-5.772 -3.516,-5.977 -3.867,-6.182 -4.24,-6.372 -4.637,-6.548 -5.031,-6.724 -5.414,-6.871 -5.779,-6.987 -6.146,-7.104 -6.445,-7.163 -6.68,-7.163 c -1.347,0 -2.343,0.571 -2.988,1.714 0.088,0.468 0.277,1.003 0.57,1.604 0.293,0.6 0.623,1.208 0.991,1.824 0.365,0.615 0.753,1.201 1.164,1.757 0.41,0.556 0.791,1.011 1.142,1.363 0.967,1.025 1.83,1.538 2.592,1.538 0.381,0 0.762,-0.081 1.143,-0.242 C -1.686,2.234 -1.34,2.028 -1.033,1.78 -0.725,1.531 -0.477,1.252 -0.285,0.945 -0.096,0.637 0,0.322 0,0 m 22.5,-32.563 c 0,-0.469 -0.184,-1.077 -0.549,-1.824 -0.367,-0.747 -0.806,-1.516 -1.318,-2.307 -0.514,-0.791 -1.033,-1.532 -1.561,-2.22 -0.527,-0.688 -0.937,-1.223 -1.23,-1.604 -1.084,-1.289 -2.301,-2.666 -3.649,-4.13 -1.347,-1.466 -2.775,-2.923 -4.283,-4.373 -1.51,-1.45 -3.07,-2.834 -4.681,-4.153 -1.612,-1.318 -3.229,-2.49 -4.856,-3.515 -1.625,-1.026 -3.223,-1.839 -4.789,-2.439 -1.568,-0.601 -3.055,-0.901 -4.461,-0.901 -1.377,0.029 -2.482,0.329 -3.318,0.901 -0.834,0.571 -1.494,1.325 -1.977,2.263 -0.484,0.937 -0.807,2.021 -0.967,3.252 -0.162,1.23 -0.242,2.505 -0.242,3.823 0,0.644 0.067,1.714 0.197,3.208 0.133,1.494 0.278,3.083 0.44,4.768 0.16,1.685 0.308,3.274 0.439,4.768 0.133,1.494 0.198,2.564 0.198,3.208 0,0.556 -0.022,0.996 -0.065,1.318 -0.045,0.323 -0.096,0.645 -0.154,0.967 -1.846,-0.322 -3.883,-0.659 -6.11,-1.01 -2.226,-0.352 -4.482,-0.682 -6.767,-0.989 -2.285,-0.308 -4.533,-0.572 -6.744,-0.791 -2.213,-0.22 -4.227,-0.374 -6.043,-0.462 0,-0.674 -0.008,-1.509 -0.022,-2.505 -0.015,-0.996 -0.045,-2.08 -0.088,-3.252 -0.045,-1.171 -0.088,-2.395 -0.132,-3.669 -0.043,-1.274 -0.096,-2.527 -0.155,-3.757 -0.176,-4.248 -0.402,-8.277 -0.68,-12.085 -0.28,-3.808 -0.645,-7.288 -1.099,-10.437 -0.455,-3.149 -1.048,-5.911 -1.78,-8.284 -0.733,-2.373 -1.641,-4.263 -2.725,-5.669 -0.205,-0.264 -0.476,-0.505 -0.812,-0.725 -0.337,-0.22 -0.697,-0.41 -1.078,-0.571 -0.38,-0.161 -0.776,-0.286 -1.186,-0.374 -0.41,-0.088 -0.791,-0.132 -1.143,-0.132 -1.757,0 -3.193,0.645 -4.306,1.934 -1.084,1.26 -1.626,2.798 -1.626,4.614 0,0.499 0.322,0.747 0.967,0.747 0.41,0 0.901,-0.094 1.472,-0.285 0.571,-0.191 1.018,-0.286 1.34,-0.286 0.996,0 1.795,0.403 2.396,1.208 0.599,0.807 1.076,1.766 1.427,2.879 0.352,1.114 0.601,2.248 0.747,3.406 0.147,1.157 0.264,2.087 0.352,2.79 0.557,5.245 0.923,10.657 1.099,16.238 0.175,5.581 0.278,11.492 0.307,17.732 -0.879,-0.088 -1.494,-0.154 -1.846,-0.198 -0.351,-0.044 -0.659,-0.066 -0.922,-0.066 -0.264,0 -0.601,0.007 -1.011,0.022 -0.41,0.015 -1.099,0.022 -2.066,0.022 -0.439,0 -0.929,0.044 -1.471,0.132 -0.543,0.088 -1.048,0.234 -1.517,0.439 -0.469,0.205 -0.856,0.477 -1.164,0.813 -0.308,0.337 -0.462,0.754 -0.462,1.253 0,0.556 0.073,1.025 0.22,1.406 0.146,0.381 0.433,0.688 0.857,0.923 0.424,0.234 1.003,0.402 1.736,0.505 0.732,0.103 1.684,0.154 2.856,0.154 0.82,0 1.633,0.015 2.44,0.044 0.805,0.029 1.618,0.117 2.438,0.264 0.029,1.289 0.088,2.651 0.176,4.087 0.088,1.435 0.22,2.907 0.395,4.416 0.176,1.509 0.389,3.025 0.638,4.549 0.248,1.523 0.578,3.017 0.988,4.482 0.762,2.783 1.707,5.2 2.835,7.251 1.128,2.05 2.351,3.742 3.669,5.076 1.319,1.333 2.696,2.329 4.131,2.988 1.436,0.659 2.842,0.989 4.219,0.989 2.461,0 4.381,-0.653 5.758,-1.956 1.377,-1.304 2.064,-3.377 2.064,-6.218 0,-0.411 -0.058,-1.004 -0.176,-1.78 -0.117,-0.776 -0.306,-1.516 -0.57,-2.219 -0.264,-0.733 -0.521,-1.224 -0.77,-1.472 -0.25,-0.249 -0.49,-0.374 -0.724,-0.374 -0.264,0 -0.586,0.674 -0.967,2.022 -0.205,0.703 -0.434,1.347 -0.682,1.933 -0.25,0.586 -0.543,1.099 -0.878,1.538 -0.338,0.44 -0.741,0.784 -1.209,1.033 -0.469,0.249 -1.026,0.374 -1.67,0.374 -1.729,0 -3.229,-0.579 -4.504,-1.736 -1.274,-1.158 -2.336,-2.842 -3.186,-5.054 -0.849,-2.212 -1.488,-4.944 -1.912,-8.196 -0.426,-3.252 -0.637,-6.987 -0.637,-11.206 0.996,0.029 2.088,0.081 3.274,0.154 1.187,0.073 2.41,0.161 3.67,0.264 1.259,0.102 2.519,0.234 3.779,0.395 1.26,0.161 2.461,0.359 3.604,0.593 2.841,0.528 5.412,1.128 7.712,1.802 2.299,0.674 4.534,1.479 6.702,2.417 0.41,0.176 0.746,0.337 1.009,0.484 0.264,0.146 0.602,0.219 1.012,0.219 0.557,0 1.047,-0.344 1.473,-1.032 0.424,-0.689 0.636,-1.736 0.636,-3.143 0,-1.757 -0.087,-3.552 -0.263,-5.383 -0.176,-1.831 -0.36,-3.655 -0.549,-5.471 -0.191,-1.817 -0.375,-3.611 -0.551,-5.383 -0.176,-1.773 -0.264,-3.479 -0.264,-5.12 0,-0.527 0.045,-1.055 0.133,-1.582 0.088,-0.527 0.227,-1.011 0.418,-1.45 0.19,-0.44 0.44,-0.791 0.746,-1.055 0.309,-0.264 0.696,-0.395 1.164,-0.395 1.055,0 2.221,0.292 3.495,0.879 1.275,0.585 2.57,1.347 3.888,2.285 1.319,0.937 2.629,1.984 3.934,3.142 1.303,1.157 2.533,2.3 3.691,3.428 1.156,1.127 2.19,2.189 3.098,3.186 0.908,0.995 1.641,1.801 2.197,2.417 0.908,1.025 1.707,1.97 2.397,2.834 0.687,0.864 1.287,1.619 1.8,2.263 0.512,0.644 0.952,1.143 1.319,1.494 0.365,0.352 0.681,0.528 0.945,0.528 0.586,0 1.01,-0.213 1.274,-0.638 0.263,-0.424 0.396,-0.974 0.396,-1.647"
                  style="fill-rule:nonzero;stroke:none" id="path36" />
            </g>
            <g id="g38" transform="translate(393.9053,593.4076)">
               <path
                  d="m 0,0 c 0,-0.293 -0.103,-0.688 -0.308,-1.187 -0.205,-0.498 -0.483,-1.032 -0.835,-1.604 -0.351,-0.571 -0.761,-1.157 -1.23,-1.757 -0.469,-0.601 -0.967,-1.15 -1.494,-1.648 -0.352,-0.323 -0.733,-0.697 -1.143,-1.121 -0.41,-0.425 -0.784,-0.879 -1.12,-1.362 -0.338,-0.484 -0.615,-0.989 -0.836,-1.516 -0.219,-0.528 -0.329,-1.026 -0.329,-1.494 0,-1.378 0.256,-2.732 0.769,-4.065 0.512,-1.334 1.34,-2.864 2.483,-4.593 0.527,-0.791 1.143,-1.685 1.846,-2.68 0.703,-0.996 1.406,-2.059 2.109,-3.186 0.703,-1.128 1.348,-2.315 1.934,-3.56 0.586,-1.246 1.025,-2.512 1.318,-3.801 2.725,2.285 5.384,4.753 7.976,7.405 2.593,2.651 5.009,5.324 7.252,8.02 2.24,2.695 4.254,5.317 6.042,7.866 1.787,2.549 3.237,4.863 4.35,6.943 0.469,0.85 0.858,1.56 1.164,2.132 0.309,0.571 0.594,1.032 0.858,1.384 0.263,0.351 0.519,0.6 0.769,0.747 0.248,0.146 0.534,0.22 0.857,0.22 0.586,0 1.01,-0.206 1.274,-0.616 0.264,-0.41 0.396,-0.982 0.396,-1.714 0,-0.674 -0.287,-1.743 -0.857,-3.208 -0.572,-1.465 -1.473,-3.273 -2.703,-5.427 -1.23,-2.153 -2.82,-4.614 -4.768,-7.383 -1.949,-2.768 -4.299,-5.808 -7.053,-9.118 -1.524,-1.817 -3.252,-3.699 -5.186,-5.647 -1.933,-1.949 -3.955,-3.845 -6.064,-5.691 -2.11,-1.846 -4.234,-3.597 -6.372,-5.252 -2.139,-1.654 -4.153,-3.105 -6.043,-4.35 -1.889,-1.245 -3.604,-2.234 -5.141,-2.966 -1.539,-0.732 -2.747,-1.099 -3.626,-1.099 -0.469,0 -0.916,0.139 -1.341,0.417 -0.425,0.279 -0.791,0.616 -1.097,1.011 -0.309,0.396 -0.558,0.813 -0.748,1.253 -0.191,0.439 -0.286,0.834 -0.286,1.186 0,0.645 0.155,1.216 0.461,1.714 0.309,0.498 0.718,0.952 1.231,1.362 0.512,0.411 1.099,0.777 1.758,1.099 0.66,0.323 1.326,0.63 2,0.923 0.439,0.175 0.937,0.366 1.494,0.571 0.556,0.205 1.128,0.417 1.714,0.637 0.586,0.22 1.149,0.468 1.692,0.747 0.541,0.279 0.988,0.578 1.34,0.901 0.615,0.586 1.098,1.267 1.45,2.044 0.352,0.775 0.527,1.574 0.527,2.395 0,0.468 -0.161,1.069 -0.483,1.801 -0.322,0.732 -0.747,1.517 -1.274,2.351 -0.528,0.835 -1.114,1.714 -1.758,2.637 -0.645,0.923 -1.289,1.831 -1.934,2.725 -0.644,0.893 -1.253,1.742 -1.823,2.549 -0.572,0.805 -1.033,1.516 -1.385,2.131 -0.674,1.113 -1.26,2.329 -1.758,3.647 -0.498,1.319 -0.747,2.681 -0.747,4.087 0,0.498 0.074,1.106 0.22,1.824 0.146,0.718 0.337,1.457 0.571,2.219 0.235,0.762 0.476,1.494 0.726,2.198 0.248,0.703 0.49,1.289 0.724,1.757 0.088,0.147 0.286,0.455 0.594,0.923 0.307,0.469 0.688,0.996 1.143,1.582 0.453,0.586 0.959,1.209 1.515,1.868 0.557,0.659 1.122,1.267 1.692,1.824 0.572,0.556 1.128,1.01 1.67,1.362 0.542,0.352 1.033,0.527 1.472,0.527 1.231,0 2.264,-0.263 3.098,-0.791 C -0.417,1.626 0,0.908 0,0"
                  style="fill-rule:nonzero;stroke:none" id="path40" />
            </g>
            <g id="g42" transform="translate(482.0596,579.433)">
               <path
                  d="m 0,0 c 0,-0.264 -0.029,-0.696 -0.088,-1.296 -0.058,-0.601 -0.14,-1.231 -0.242,-1.89 -0.103,-0.659 -0.212,-1.282 -0.329,-1.868 -0.117,-0.586 -0.235,-0.996 -0.352,-1.23 -1.113,-2.022 -2.395,-3.963 -3.844,-5.823 -1.452,-1.861 -3.011,-3.494 -4.681,-4.9 -1.67,-1.406 -3.399,-2.534 -5.186,-3.384 -1.787,-0.85 -3.574,-1.274 -5.361,-1.274 -1.729,0 -3.201,0.22 -4.417,0.659 -1.216,0.44 -2.233,1.026 -3.054,1.758 -0.82,0.732 -1.471,1.56 -1.956,2.483 -0.482,0.923 -0.864,1.868 -1.142,2.834 -0.279,0.967 -0.491,1.912 -0.637,2.835 -0.147,0.923 -0.278,1.75 -0.396,2.483 -0.087,0.527 -0.131,1.142 -0.131,1.845 0,1.202 0.073,2.542 0.219,4.021 0.147,1.479 0.22,2.864 0.22,4.153 0,0.908 -0.066,1.692 -0.197,2.351 -0.133,0.66 -0.374,1.121 -0.726,1.385 -0.644,-0.587 -1.253,-1.231 -1.823,-1.934 -0.572,-0.703 -1.18,-1.458 -1.824,-2.263 -0.645,-0.806 -1.333,-1.677 -2.066,-2.615 -0.732,-0.938 -1.567,-1.934 -2.505,-2.988 -0.205,-0.235 -0.564,-0.791 -1.076,-1.67 -0.513,-0.879 -1.129,-1.956 -1.845,-3.23 -0.719,-1.275 -1.51,-2.674 -2.374,-4.197 -0.865,-1.523 -1.765,-3.069 -2.703,-4.636 -0.937,-1.567 -1.882,-3.091 -2.834,-4.57 -0.953,-1.48 -1.853,-2.791 -2.703,-3.934 -0.849,-1.142 -1.64,-2.058 -2.373,-2.746 -0.732,-0.688 -1.333,-1.033 -1.802,-1.033 -0.527,0 -0.96,0.044 -1.295,0.132 -0.338,0.088 -0.631,0.176 -0.879,0.264 -0.25,0.088 -0.47,0.175 -0.661,0.263 -0.19,0.088 -0.387,0.132 -0.592,0.132 -0.235,0.821 -0.41,1.802 -0.528,2.945 -0.117,1.142 -0.205,2.292 -0.263,3.449 -0.059,1.157 -0.096,2.226 -0.111,3.208 -0.014,0.982 -0.021,1.721 -0.021,2.219 0,3.926 0.285,8.057 0.857,12.393 0.571,4.336 1.252,8.884 2.043,13.645 0.791,4.761 1.612,9.741 2.461,14.941 0.85,5.201 1.553,10.642 2.11,16.326 0.175,0.82 0.431,1.553 0.769,2.197 0.336,0.644 0.695,1.194 1.076,1.648 0.381,0.454 0.754,0.798 1.121,1.033 0.366,0.234 0.652,0.352 0.857,0.352 h 0.044 c 0.439,-0.059 0.871,-0.271 1.297,-0.638 0.423,-0.366 0.797,-0.842 1.12,-1.428 0.322,-0.586 0.586,-1.238 0.791,-1.955 0.205,-0.719 0.307,-1.458 0.307,-2.22 0,-0.556 -0.058,-1.054 -0.175,-1.494 -0.205,-0.938 -0.381,-1.736 -0.528,-2.395 -0.146,-0.659 -0.285,-1.274 -0.418,-1.845 -0.131,-0.572 -0.249,-1.121 -0.351,-1.648 -0.103,-0.528 -0.219,-1.128 -0.352,-1.802 -0.131,-0.674 -0.278,-1.465 -0.439,-2.373 -0.161,-0.908 -0.359,-1.993 -0.593,-3.252 -0.029,-0.235 -0.125,-0.828 -0.286,-1.78 -0.161,-0.952 -0.359,-2.124 -0.593,-3.516 -0.234,-1.391 -0.498,-2.951 -0.791,-4.68 -0.293,-1.729 -0.586,-3.479 -0.879,-5.251 -0.293,-1.773 -0.579,-3.516 -0.856,-5.23 -0.28,-1.714 -0.528,-3.274 -0.748,-4.68 -0.219,-1.406 -0.395,-2.586 -0.528,-3.537 -0.131,-0.953 -0.197,-1.561 -0.197,-1.824 0,-0.293 -0.021,-0.675 -0.066,-1.143 -0.043,-0.469 -0.088,-0.982 -0.131,-1.538 -0.045,-0.557 -0.081,-1.136 -0.111,-1.736 -0.029,-0.6 -0.044,-1.194 -0.044,-1.779 0,-0.587 0.022,-1.136 0.067,-1.648 0.043,-0.513 0.139,-0.96 0.285,-1.341 0.732,0.556 1.516,1.311 2.352,2.263 0.834,0.952 1.698,2.015 2.591,3.186 0.894,1.172 1.803,2.417 2.725,3.736 0.924,1.318 1.846,2.629 2.77,3.933 0.921,1.303 1.815,2.556 2.679,3.757 0.864,1.201 1.693,2.256 2.484,3.164 0.351,0.644 0.82,1.363 1.406,2.154 0.586,0.791 1.208,1.574 1.868,2.351 0.658,0.776 1.332,1.494 2.021,2.153 0.688,0.659 1.311,1.209 1.868,1.648 1.201,0.908 2.285,1.465 3.252,1.67 0.966,0.204 1.875,0.308 2.724,0.308 0.293,0 0.564,-0.213 0.813,-0.638 0.249,-0.425 0.476,-0.938 0.681,-1.538 0.205,-0.6 0.367,-1.238 0.484,-1.911 0.117,-0.675 0.176,-1.26 0.176,-1.758 0,-0.469 -0.066,-1.128 -0.199,-1.978 -0.131,-0.85 -0.27,-1.802 -0.417,-2.856 -0.146,-1.055 -0.286,-2.154 -0.417,-3.296 -0.132,-1.143 -0.198,-2.241 -0.198,-3.296 0,-0.176 0.007,-0.359 0.023,-0.549 0.013,-0.191 0.021,-0.374 0.021,-0.55 0.059,-0.82 0.154,-1.809 0.285,-2.966 0.133,-1.158 0.41,-2.27 0.836,-3.34 0.424,-1.07 1.039,-1.977 1.846,-2.724 0.805,-0.747 1.911,-1.121 3.317,-1.121 1.436,0 2.813,0.27 4.131,0.813 1.318,0.542 2.629,1.333 3.933,2.373 1.303,1.04 2.63,2.314 3.977,3.823 1.348,1.509 2.769,3.245 4.263,5.208 0.527,0.674 1.099,1.245 1.714,1.714 0.615,0.468 1.04,0.703 1.274,0.703 C -0.059,0.176 0,0.117 0,0"
                  style="fill-rule:nonzero;stroke:none" id="path44" />
            </g>
            <g id="g46" transform="translate(184.1784,677.7172)">
               <path
                  d="m 0,0 c 0,3.77 3.057,6.827 6.827,6.827 3.771,0 6.827,-3.057 6.827,-6.827 0,-3.771 -3.056,-6.827 -6.827,-6.827 C 3.057,-6.827 0,-3.771 0,0"
                  style="fill-rule:nonzero;stroke:none" id="path48" />
            </g>
            <g id="g50" transform="translate(230.1667,643.89)">
               <path
                  d="M 0,0 C -24.245,5.947 -58.026,18.742 -95.667,40.654 0.606,58.908 69.123,48.102 127.646,24.601 94.162,12.573 59.34,2.838 0,0 m 247.167,51.833 c -53,-0.52 -105,-21.833 -110.604,-24.708 -10.949,3.49 -94.352,47.764 -240.777,17.469 -2.285,-0.473 -2.568,-4.32 -0.687,-5.36 C -44.252,5.716 -20.971,0.904 -1.494,-5.5 41.822,-2.946 71.071,-2.374 136.563,21.312 177.32,3.921 205.416,-3.739 227.115,-5.5 c 3.708,0.847 3.423,5.383 0.281,6 -18.688,1.5 -44.338,7.546 -82,23.837 32.894,12.525 67.044,21.204 101.771,21.33 3.141,2.035 3.081,4.091 0,6.166"
                  style="fill-rule:nonzero;stroke:none" id="path52" />
            </g>
         </g>
      </g>
   </g>
</svg>