<?xml version="1.0"?>
<!-- <svg width="36" height="36" xmlns="http://www.w3.org/2000/svg" xmlns:svg="http://www.w3.org/2000/svg" version="1.1" xml:space="preserve"> -->
<svg xmlns="http://www.w3.org/2000/svg" xmlns:xlink="http://www.w3.org/1999/xlink" version="1.1" id="Layer_1" x="0px"
   y="0px" viewBox="0 0 36 36" enable-background="new 0 0 36 36" xml:space="preserve">
   <!-- <style>
      path {
         fill: #231916;
      }

      @media (prefers-color-scheme: dark) {
         svg {
            background-color: #00000000
         }

         path {
            fill: white;
         }
      }
   </style> -->
   <g class="layer">
      <title>Layer 1</title>
      <g id="g8" transform="matrix(0.094948 0 0 -0.094948 -68.5403 161.086)">
         <g id="g10">
            <g id="g12">
               <g id="g18" transform="translate(150.097 585.146)">
                  <path
                     d="m611.21,886.96c0,0.29 -0.11,0.62 -0.33,0.99c-0.22,0.37 -0.5,0.72 -0.83,1.05c-0.34,0.34 -0.72,0.63 -1.13,0.86c-0.41,0.23 -0.79,0.35 -1.14,0.35c-0.91,0 -1.75,-0.14 -2.52,-0.44c-0.78,-0.29 -1.51,-0.66 -2.18,-1.12c-0.67,-0.45 -1.3,-0.97 -1.87,-1.56c-0.57,-0.58 -1.07,-1.17 -1.51,-1.76c-1.06,-1.34 -2.14,-2.99 -3.23,-4.94c-1.1,-1.95 -2.1,-3.99 -2.99,-6.13c-0.9,-2.14 -1.63,-4.25 -2.2,-6.33c-0.57,-2.08 -0.86,-3.93 -0.86,-5.54c0,-0.82 0.37,-1.52 1.1,-2.11c0.73,-0.58 1.72,-0.87 2.95,-0.87c0.7,0 1.54,0.31 2.52,0.94c0.98,0.63 2.01,1.47 3.08,2.51c1.07,1.04 2.12,2.21 3.16,3.53c1.04,1.32 1.96,2.68 2.75,4.09c1.49,2.64 2.74,5.3 3.74,7.98c0.99,2.68 1.49,5.51 1.49,8.5m35.73,2.02c0,-0.26 -0.21,-1 -0.64,-2.2c-0.42,-1.2 -1.04,-2.65 -1.84,-4.37c-0.81,-1.71 -1.79,-3.6 -2.95,-5.65c-1.16,-2.05 -2.45,-4.04 -3.89,-5.97c-1.76,-2.4 -3.5,-4.5 -5.23,-6.29c-1.73,-1.78 -3.37,-3.27 -4.94,-4.46c-1.57,-1.18 -3.01,-2.08 -4.33,-2.68c-1.32,-0.6 -2.46,-0.9 -3.43,-0.9c-1.61,0 -2.91,0.23 -3.91,0.68c-1,0.46 -1.82,1.15 -2.46,2.07c-0.64,0.92 -1.16,2.09 -1.56,3.51c-0.4,1.42 -0.78,3.1 -1.16,5.04l-0.62,0c-1.23,-1.88 -2.57,-3.73 -4.02,-5.56c-1.45,-1.83 -2.96,-3.48 -4.53,-4.93c-1.56,-1.45 -3.18,-2.63 -4.83,-3.53c-1.66,-0.91 -3.29,-1.37 -4.9,-1.37c-0.85,0 -1.75,0.16 -2.68,0.47c-0.94,0.3 -1.8,0.79 -2.6,1.47c-0.79,0.67 -1.45,1.53 -1.97,2.57c-0.53,1.04 -0.79,2.29 -0.79,3.76c0,1.29 0.16,2.76 0.48,4.41c0.32,1.66 0.76,3.39 1.32,5.19c0.55,1.8 1.19,3.62 1.91,5.45c0.72,1.83 1.48,3.56 2.28,5.21c0.81,1.64 1.62,3.12 2.44,4.46c0.82,1.33 1.62,2.39 2.38,3.18c0.88,0.94 1.91,1.89 3.09,2.86c1.19,0.96 2.5,1.84 3.94,2.63c1.43,0.8 2.97,1.45 4.61,1.96c1.64,0.51 3.37,0.77 5.19,0.77c1.46,0 2.56,-0.48 3.29,-1.43c0.74,-0.95 1.25,-2.39 1.54,-4.33c0.03,-0.17 0.14,-0.38 0.33,-0.61c0.19,-0.24 0.4,-0.5 0.62,-0.79c0.22,-0.3 0.41,-0.6 0.59,-0.9c0.18,-0.31 0.26,-0.63 0.26,-0.95c0,-0.47 -0.1,-1.05 -0.3,-1.74c-0.21,-0.68 -0.44,-1.46 -0.68,-2.32c-0.25,-0.87 -0.48,-1.81 -0.69,-2.82c-0.2,-1.01 -0.3,-2.07 -0.3,-3.18c0,-1.53 0.01,-3.15 0.04,-4.88c0.03,-1.73 0.2,-3.32 0.5,-4.77c0.31,-1.45 0.82,-2.66 1.54,-3.62c0.72,-0.97 1.77,-1.45 3.15,-1.45c0.7,0 1.54,0.29 2.52,0.87c0.98,0.59 2.07,1.41 3.25,2.47c1.19,1.05 2.44,2.31 3.74,3.77c1.3,1.47 2.64,3.08 4.02,4.84c1.58,2.02 2.96,4.02 4.13,6c1.17,1.97 2.2,3.73 3.08,5.27c0.88,1.54 1.62,2.78 2.24,3.74c0.61,0.95 1.14,1.42 1.58,1.42l0.05,0c0.49,-0.03 0.82,-0.17 0.96,-0.44c0.15,-0.26 0.22,-0.6 0.22,-1.01l0,-0.43c0,-0.15 -0.01,-0.31 -0.04,-0.49"
                     fill-rule="nonzero" id="path20" />
               </g>
               <g id="g22" transform="translate(221.244 577.192)">
                  <path
                     d="m611.21,886.96c0,-1.38 -0.84,-3.53 -2.51,-6.46c-0.32,-0.56 -0.76,-1.22 -1.34,-2c-0.57,-0.78 -1.2,-1.58 -1.91,-2.42c-0.7,-0.83 -1.43,-1.68 -2.19,-2.55c-0.77,-0.86 -1.51,-1.66 -2.25,-2.39c-1.11,-1.11 -2.33,-2.2 -3.67,-3.25c-1.33,-1.06 -2.73,-2.01 -4.21,-2.86c-1.48,-0.85 -3.01,-1.53 -4.57,-2.04c-1.57,-0.52 -3.12,-0.77 -4.64,-0.77c-2.02,0 -3.91,0.36 -5.67,1.1c-1.76,0.73 -3.29,1.86 -4.59,3.38c-1.31,1.52 -2.33,3.44 -3.08,5.74c-0.75,2.3 -1.12,5.01 -1.12,8.15c0,2.14 0.1,4.37 0.31,6.7c0.2,2.33 0.47,4.67 0.79,7.01c0.32,2.34 0.68,4.66 1.08,6.96c0.39,2.3 0.79,4.52 1.21,6.66c0.26,1.47 0.49,2.67 0.68,3.61c0.19,0.93 0.35,1.8 0.5,2.59c0.15,0.79 0.28,1.59 0.4,2.39c0.11,0.81 0.26,1.81 0.44,3.01c0.11,0.82 0.22,1.55 0.33,2.18c0.1,0.63 0.18,1.15 0.24,1.56c0.11,0.7 0.31,1.38 0.59,2.02c0.28,0.64 0.63,1.22 1.06,1.71c0.42,0.5 0.91,0.9 1.47,1.19c0.55,0.29 1.17,0.44 1.84,0.44c1.41,0 2.45,-0.66 3.12,-1.98c-0.17,-0.91 -0.35,-1.78 -0.55,-2.61c-0.19,-0.84 -0.35,-1.72 -0.5,-2.66c-0.73,-3.69 -1.33,-6.68 -1.8,-8.97c-0.47,-2.28 -0.81,-3.89 -1.01,-4.83c-0.35,-1.84 -0.73,-3.84 -1.12,-5.98c-0.4,-2.13 -0.77,-4.32 -1.1,-6.54c-0.34,-2.23 -0.61,-4.43 -0.82,-6.6c-0.2,-2.16 -0.3,-4.19 -0.3,-6.06c0,-2.02 0.16,-3.86 0.48,-5.51c0.32,-1.66 0.84,-3.07 1.56,-4.25c0.72,-1.17 1.64,-2.08 2.77,-2.72c1.13,-0.64 2.5,-0.97 4.11,-0.97c1.76,0 3.48,0.39 5.18,1.17c1.7,0.77 3.34,1.76 4.9,2.96c1.57,1.2 3.06,2.53 4.46,3.98c1.41,1.45 2.7,2.85 3.87,4.2c0.94,1.11 1.76,2.07 2.46,2.88c0.7,0.8 1.29,1.48 1.76,2.04c0.38,0.44 0.81,0.89 1.3,1.36c0.48,0.47 0.93,0.7 1.34,0.7c0.47,0 0.7,-0.42 0.7,-1.27"
                     fill-rule="nonzero" id="path24" />
               </g>
               <g id="g26" transform="translate(272.484 580.795)">
                  <path
                     d="m611.21,886.96c0,-1.05 -0.38,-2.01 -1.14,-2.86c-0.27,-0.29 -0.68,-0.68 -1.23,-1.16c-0.56,-0.48 -1.06,-0.95 -1.5,-1.39l-4.04,-4.04c-0.76,-0.76 -1.47,-1.44 -2.13,-2.04c-0.66,-0.6 -1.24,-1.12 -1.74,-1.56c-0.85,-0.7 -1.86,-1.55 -3.05,-2.53c-1.19,-0.98 -2.56,-2.11 -4.11,-3.4c-3.05,-2.52 -5.86,-4.59 -8.44,-6.2c-2.58,-1.58 -5.34,-2.85 -8.28,-3.8c-2.95,-0.95 -6.06,-1.43 -9.34,-1.43c-2.02,-0.06 -3.83,0.29 -5.43,1.06c-1.59,0.76 -2.94,1.79 -4.04,3.09c-1.1,1.31 -1.93,2.84 -2.51,4.6c-0.57,1.75 -0.84,3.61 -0.81,5.58c0,3.89 0.83,7.79 2.48,11.69c1.66,3.89 3.86,7.73 6.62,11.51c1.49,1.99 3.29,3.89 5.4,5.71c2.08,1.82 3.97,2.73 5.67,2.73c0.91,0 1.95,-0.77 3.12,-2.29c0.59,-0.76 1.15,-1.57 1.67,-2.44c0.53,-0.86 1.01,-1.78 1.45,-2.74c0.88,-1.91 1.32,-3.29 1.32,-4.14c0,-0.85 -0.26,-1.94 -0.79,-3.29c-0.53,-1.35 -1.16,-2.02 -1.89,-2.02c-1.05,0 -1.93,0.71 -2.64,2.15c-0.35,0.73 -0.6,1.36 -0.77,1.87c-0.16,0.51 -0.34,1.06 -0.54,1.65c-0.68,1.75 -1.25,3.01 -1.72,3.78c-1.93,-0.36 -3.54,-1.31 -4.83,-2.86c-0.62,-0.76 -1.26,-1.68 -1.91,-2.75c-0.66,-1.07 -1.36,-2.27 -2.09,-3.62c-0.59,-1.06 -1.13,-2.24 -1.63,-3.56c-0.5,-1.32 -0.92,-2.68 -1.27,-4.07c-0.35,-1.39 -0.63,-2.78 -0.84,-4.17c-0.2,-1.39 -0.3,-2.69 -0.3,-3.89c0,-1.7 0.73,-3.36 2.19,-4.97c1.5,-1.55 3.11,-2.33 4.84,-2.33c3.75,0 7.31,0.66 10.68,1.98c3.36,1.32 6.6,3.08 9.71,5.27c3.07,2.14 6.19,4.65 9.36,7.52c1.58,1.43 3.08,2.79 4.5,4.06c1.42,1.28 2.78,2.5 4.07,3.67c2.14,1.88 3.91,2.82 5.31,2.82c0.42,0 0.62,-0.4 0.62,-1.19"
                     fill-rule="nonzero" id="path28" />
               </g>
               <g id="g30" transform="translate(294.897 578.642)">
                  <path
                     d="m611.21,886.96c0,2.9 -0.83,5.17 -2.48,6.81c-1.66,1.64 -4.04,2.46 -7.14,2.46c-1.06,0 -2.13,-0.28 -3.21,-0.83c-1.09,-0.56 -2.13,-1.25 -3.12,-2.07c-1,-0.82 -1.91,-1.69 -2.75,-2.61c-0.83,-0.93 -1.53,-1.75 -2.09,-2.49c-0.55,-0.76 -1.17,-1.79 -1.84,-3.09c-0.68,-1.31 -1.31,-2.7 -1.91,-4.18c-0.6,-1.48 -1.1,-2.96 -1.5,-4.44c-0.39,-1.48 -0.59,-2.77 -0.59,-3.89c0,-0.67 0.13,-1.35 0.39,-2.04c0.27,-0.69 0.64,-1.3 1.12,-1.85c0.49,-0.54 1.07,-0.98 1.74,-1.34c0.68,-0.35 1.42,-0.52 2.24,-0.52c0.88,0 2.02,0.26 3.41,0.79c1.39,0.52 2.87,1.25 4.44,2.17c1.56,0.93 3.14,2.02 4.72,3.3c1.58,1.27 3.01,2.66 4.29,4.15c1.27,1.5 2.3,3.06 3.09,4.7c0.79,1.64 1.19,3.3 1.19,4.97m6.86,1.27c0,-0.93 -0.05,-1.83 -0.14,-2.68c-0.08,-0.85 -0.22,-1.67 -0.39,-2.46c-0.18,-0.79 -0.41,-1.59 -0.7,-2.39c-0.3,-0.81 -0.65,-1.64 -1.06,-2.48c-0.41,-0.91 -1.16,-2 -2.24,-3.26c-1.08,-1.26 -2.38,-2.56 -3.89,-3.91c-1.51,-1.35 -3.16,-2.68 -4.97,-4c-1.8,-1.32 -3.62,-2.5 -5.47,-3.56c-1.84,-1.05 -3.65,-1.9 -5.42,-2.55c-1.78,-0.64 -3.38,-0.96 -4.82,-0.96c-1.96,0 -3.67,0.33 -5.14,0.99c-1.46,0.66 -2.68,1.52 -3.65,2.59c-0.96,1.07 -1.69,2.29 -2.17,3.67c-0.48,1.38 -0.73,2.77 -0.73,4.17c0,0.94 0.12,2.01 0.36,3.21c0.23,1.2 0.54,2.45 0.92,3.74c0.38,1.29 0.83,2.6 1.36,3.95c0.53,1.35 1.08,2.64 1.67,3.87c0.59,1.23 1.19,2.37 1.8,3.43c0.62,1.05 1.22,1.95 1.8,2.68c1.03,1.29 2.27,2.55 3.72,3.78c1.45,1.23 3.04,2.32 4.77,3.27c1.72,0.95 3.58,1.72 5.55,2.31c1.98,0.58 4.03,0.88 6.14,0.88c1.58,0 3.13,-0.39 4.65,-1.17c1.53,-0.77 2.88,-1.82 4.07,-3.14c1.19,-1.32 2.14,-2.84 2.88,-4.57c0.73,-1.73 1.1,-3.53 1.1,-5.41"
                     fill-rule="nonzero" id="path32" />
               </g>
               <g id="g34" transform="translate(362.705 614.062)">
                  <path
                     d="m611.21,886.96c0,-0.26 -0.03,-0.54 -0.09,-0.81c-0.06,-0.28 -0.18,-0.62 -0.37,-1.01c-0.19,-0.4 -0.46,-0.88 -0.81,-1.45c-0.36,-0.58 -0.81,-1.3 -1.37,-2.18c-0.23,-0.15 -0.52,-0.32 -0.88,-0.53c-0.35,-0.2 -0.72,-0.39 -1.12,-0.57c-0.39,-0.17 -0.77,-0.32 -1.14,-0.44c-0.37,-0.11 -0.67,-0.17 -0.9,-0.17c-1.35,0 -2.34,0.57 -2.99,1.71c0.09,0.47 0.28,1 0.57,1.6c0.3,0.6 0.63,1.21 0.99,1.83c0.37,0.61 0.76,1.2 1.17,1.76c0.41,0.55 0.79,1.01 1.14,1.36c0.97,1.02 1.83,1.54 2.59,1.54c0.38,0 0.76,-0.08 1.14,-0.24c0.38,-0.17 0.73,-0.37 1.04,-0.62c0.31,-0.25 0.55,-0.53 0.75,-0.83c0.18,-0.31 0.28,-0.63 0.28,-0.95m22.5,-32.56c0,-0.47 -0.18,-1.08 -0.55,-1.83c-0.37,-0.74 -0.81,-1.51 -1.32,-2.3c-0.51,-0.79 -1.03,-1.54 -1.56,-2.22c-0.52,-0.69 -0.94,-1.23 -1.23,-1.61c-1.08,-1.29 -2.3,-2.66 -3.65,-4.13c-1.34,-1.46 -2.77,-2.92 -4.28,-4.37c-1.51,-1.45 -3.07,-2.84 -4.68,-4.15c-1.61,-1.32 -3.23,-2.49 -4.86,-3.52c-1.62,-1.02 -3.22,-1.84 -4.79,-2.44c-1.56,-0.6 -3.05,-0.9 -4.46,-0.9c-1.37,0.03 -2.48,0.33 -3.31,0.9c-0.84,0.57 -1.5,1.33 -1.98,2.27c-0.49,0.93 -0.81,2.02 -0.97,3.25c-0.16,1.23 -0.24,2.5 -0.24,3.82c0,0.64 0.07,1.71 0.2,3.21c0.13,1.49 0.27,3.08 0.44,4.77c0.16,1.68 0.3,3.27 0.44,4.76c0.13,1.5 0.19,2.57 0.19,3.21c0,0.56 -0.02,1 -0.06,1.32c-0.05,0.32 -0.1,0.65 -0.16,0.97c-1.84,-0.32 -3.88,-0.66 -6.11,-1.01c-2.22,-0.35 -4.48,-0.68 -6.76,-0.99c-2.29,-0.31 -4.54,-0.57 -6.75,-0.79c-2.21,-0.22 -4.22,-0.38 -6.04,-0.46c0,-0.68 -0.01,-1.51 -0.02,-2.51c-0.02,-1 -0.05,-2.08 -0.09,-3.25c-0.05,-1.17 -0.09,-2.4 -0.13,-3.67c-0.05,-1.28 -0.1,-2.53 -0.16,-3.76c-0.17,-4.25 -0.4,-8.28 -0.68,-12.08c-0.28,-3.81 -0.64,-7.29 -1.1,-10.44c-0.45,-3.15 -1.04,-5.91 -1.78,-8.28c-0.73,-2.38 -1.64,-4.27 -2.72,-5.67c-0.21,-0.27 -0.48,-0.51 -0.81,-0.73c-0.34,-0.22 -0.7,-0.41 -1.08,-0.57c-0.38,-0.16 -0.78,-0.29 -1.19,-0.37c-0.41,-0.09 -0.79,-0.14 -1.14,-0.14c-1.76,0 -3.19,0.65 -4.31,1.94c-1.08,1.26 -1.62,2.8 -1.62,4.61c0,0.5 0.32,0.75 0.96,0.75c0.41,0 0.91,-0.09 1.48,-0.29c0.57,-0.19 1.01,-0.28 1.34,-0.28c0.99,0 1.79,0.4 2.39,1.21c0.6,0.8 1.08,1.76 1.43,2.88c0.35,1.11 0.6,2.24 0.75,3.4c0.14,1.16 0.26,2.09 0.35,2.79c0.56,5.25 0.92,10.66 1.1,16.24c0.17,5.58 0.28,11.49 0.3,17.73c-0.87,-0.09 -1.49,-0.15 -1.84,-0.2c-0.35,-0.04 -0.66,-0.06 -0.92,-0.06c-0.27,0 -0.6,0.01 -1.01,0.02c-0.41,0.02 -1.1,0.02 -2.07,0.02c-0.44,0 -0.93,0.05 -1.47,0.13c-0.54,0.09 -1.05,0.24 -1.52,0.44c-0.47,0.21 -0.85,0.48 -1.16,0.82c-0.31,0.33 -0.46,0.75 -0.46,1.25c0,0.56 0.07,1.02 0.22,1.41c0.14,0.38 0.43,0.68 0.85,0.92c0.43,0.23 1.01,0.4 1.74,0.5c0.73,0.11 1.68,0.16 2.85,0.16c0.82,0 1.64,0.01 2.44,0.04c0.81,0.03 1.62,0.12 2.44,0.27c0.03,1.28 0.09,2.65 0.18,4.08c0.09,1.44 0.22,2.91 0.39,4.42c0.18,1.51 0.39,3.02 0.64,4.55c0.25,1.52 0.58,3.01 0.99,4.48c0.76,2.78 1.71,5.2 2.83,7.25c1.13,2.05 2.36,3.74 3.67,5.08c1.32,1.33 2.7,2.32 4.14,2.98c1.43,0.66 2.84,0.99 4.21,0.99c2.46,0 4.38,-0.65 5.76,-1.95c1.38,-1.31 2.07,-3.38 2.07,-6.22c0,-0.41 -0.06,-1.01 -0.18,-1.78c-0.12,-0.78 -0.31,-1.52 -0.57,-2.22c-0.26,-0.73 -0.52,-1.22 -0.77,-1.47c-0.25,-0.25 -0.49,-0.38 -0.72,-0.38c-0.27,0 -0.59,0.68 -0.97,2.03c-0.21,0.7 -0.44,1.34 -0.68,1.93c-0.25,0.58 -0.55,1.1 -0.88,1.54c-0.34,0.44 -0.74,0.78 -1.21,1.03c-0.47,0.25 -1.03,0.37 -1.67,0.37c-1.73,0 -3.23,-0.57 -4.5,-1.73c-1.28,-1.16 -2.34,-2.84 -3.19,-5.06c-0.85,-2.21 -1.49,-4.94 -1.91,-8.19c-0.43,-3.25 -0.64,-6.99 -0.64,-11.21c1,0.03 2.09,0.08 3.27,0.16c1.19,0.07 2.41,0.16 3.67,0.26c1.26,0.1 2.52,0.23 3.78,0.39c1.26,0.17 2.46,0.36 3.61,0.6c2.84,0.53 5.41,1.13 7.71,1.8c2.3,0.67 4.53,1.48 6.7,2.42c0.41,0.17 0.75,0.33 1.01,0.48c0.26,0.15 0.6,0.22 1.01,0.22c0.56,0 1.05,-0.34 1.48,-1.03c0.42,-0.69 0.63,-1.74 0.63,-3.15c0,-1.75 -0.09,-3.55 -0.26,-5.38c-0.18,-1.83 -0.36,-3.65 -0.55,-5.47c-0.19,-1.82 -0.38,-3.61 -0.55,-5.38c-0.18,-1.78 -0.27,-3.48 -0.27,-5.12c0,-0.53 0.05,-1.06 0.14,-1.58c0.09,-0.53 0.22,-1.02 0.42,-1.45c0.19,-0.44 0.44,-0.8 0.74,-1.06c0.31,-0.26 0.7,-0.39 1.17,-0.39c1.05,0 2.22,0.29 3.49,0.87c1.28,0.59 2.57,1.35 3.89,2.29c1.32,0.94 2.63,1.98 3.93,3.14c1.31,1.16 2.54,2.3 3.69,3.43c1.16,1.13 2.19,2.19 3.1,3.19c0.91,0.99 1.64,1.8 2.2,2.41c0.91,1.03 1.71,1.97 2.4,2.84c0.68,0.86 1.28,1.62 1.8,2.26c0.51,0.64 0.95,1.14 1.31,1.49c0.37,0.36 0.69,0.53 0.95,0.53c0.59,0 1.01,-0.21 1.27,-0.64c0.27,-0.42 0.4,-0.97 0.4,-1.64"
                     fill-rule="nonzero" id="path36" />
               </g>
               <g id="g38" transform="translate(393.905 593.408)">
                  <path
                     d="m611.21,886.96c0,-0.29 -0.1,-0.69 -0.31,-1.19c-0.2,-0.5 -0.48,-1.03 -0.83,-1.6c-0.35,-0.57 -0.76,-1.16 -1.23,-1.76c-0.47,-0.6 -0.97,-1.15 -1.5,-1.65c-0.35,-0.32 -0.73,-0.69 -1.14,-1.12c-0.41,-0.42 -0.78,-0.88 -1.12,-1.36c-0.34,-0.48 -0.62,-0.99 -0.84,-1.52c-0.22,-0.52 -0.33,-1.02 -0.33,-1.49c0,-1.38 0.26,-2.73 0.77,-4.06c0.52,-1.34 1.34,-2.87 2.49,-4.6c0.52,-0.79 1.14,-1.68 1.84,-2.68c0.71,-0.99 1.41,-2.06 2.11,-3.18c0.7,-1.13 1.35,-2.32 1.94,-3.56c0.58,-1.25 1.02,-2.52 1.31,-3.8c2.73,2.28 5.39,4.75 7.98,7.4c2.59,2.65 5.01,5.32 7.25,8.02c2.24,2.7 4.26,5.32 6.04,7.87c1.79,2.55 3.24,4.86 4.35,6.94c0.47,0.85 0.86,1.56 1.17,2.13c0.31,0.57 0.59,1.03 0.86,1.39c0.26,0.35 0.51,0.6 0.76,0.74c0.25,0.15 0.54,0.22 0.86,0.22c0.59,0 1.01,-0.2 1.28,-0.61c0.26,-0.41 0.39,-0.98 0.39,-1.72c0,-0.67 -0.29,-1.74 -0.86,-3.2c-0.57,-1.47 -1.47,-3.28 -2.7,-5.43c-1.23,-2.15 -2.82,-4.62 -4.77,-7.38c-1.95,-2.77 -4.3,-5.81 -7.05,-9.12c-1.52,-1.82 -3.25,-3.7 -5.19,-5.65c-1.93,-1.95 -3.95,-3.84 -6.06,-5.69c-2.11,-1.85 -4.23,-3.6 -6.37,-5.25c-2.14,-1.66 -4.15,-3.11 -6.04,-4.35c-1.89,-1.25 -3.61,-2.24 -5.15,-2.97c-1.53,-0.73 -2.74,-1.1 -3.62,-1.1c-0.47,0 -0.92,0.14 -1.34,0.42c-0.43,0.28 -0.79,0.62 -1.1,1.01c-0.31,0.4 -0.56,0.81 -0.75,1.25c-0.19,0.44 -0.28,0.84 -0.28,1.19c0,0.64 0.15,1.22 0.46,1.71c0.31,0.5 0.72,0.96 1.23,1.37c0.51,0.41 1.1,0.77 1.76,1.09c0.66,0.33 1.32,0.63 2,0.93c0.44,0.17 0.93,0.36 1.49,0.57c0.56,0.2 1.13,0.42 1.71,0.64c0.59,0.22 1.15,0.46 1.7,0.74c0.54,0.28 0.98,0.58 1.34,0.9c0.61,0.59 1.09,1.27 1.45,2.05c0.35,0.77 0.52,1.57 0.52,2.39c0,0.47 -0.16,1.07 -0.48,1.8c-0.32,0.74 -0.75,1.52 -1.27,2.35c-0.53,0.84 -1.12,1.72 -1.76,2.64c-0.65,0.92 -1.29,1.83 -1.94,2.73c-0.64,0.89 -1.25,1.74 -1.82,2.55c-0.57,0.8 -1.03,1.51 -1.38,2.13c-0.68,1.11 -1.26,2.33 -1.76,3.64c-0.5,1.32 -0.75,2.68 -0.75,4.09c0,0.5 0.08,1.11 0.22,1.82c0.15,0.72 0.34,1.46 0.57,2.22c0.24,0.77 0.48,1.5 0.73,2.2c0.25,0.7 0.49,1.29 0.72,1.76c0.09,0.15 0.29,0.45 0.6,0.92c0.3,0.47 0.68,1 1.14,1.58c0.45,0.59 0.96,1.21 1.51,1.87c0.56,0.66 1.13,1.27 1.7,1.83c0.57,0.55 1.12,1.01 1.67,1.36c0.54,0.35 1.03,0.52 1.47,0.52c1.23,0 2.26,-0.26 3.1,-0.79c0.83,-0.52 1.25,-1.24 1.25,-2.15"
                     fill-rule="nonzero" id="path40" />
               </g>
               <g id="g42" transform="translate(482.06 579.433)">
                  <path
                     d="m611.21,886.96c0,-0.26 -0.03,-0.7 -0.09,-1.3c-0.06,-0.6 -0.14,-1.23 -0.24,-1.89c-0.1,-0.66 -0.21,-1.28 -0.33,-1.86c-0.12,-0.59 -0.23,-1 -0.35,-1.23c-1.11,-2.03 -2.4,-3.97 -3.85,-5.83c-1.45,-1.86 -3.01,-3.49 -4.68,-4.9c-1.67,-1.4 -3.39,-2.53 -5.18,-3.38c-1.79,-0.85 -3.58,-1.28 -5.36,-1.28c-1.73,0 -3.2,0.22 -4.42,0.66c-1.22,0.44 -2.23,1.03 -3.05,1.76c-0.82,0.73 -1.47,1.56 -1.96,2.48c-0.48,0.93 -0.86,1.87 -1.14,2.84c-0.28,0.97 -0.49,1.91 -0.64,2.83c-0.15,0.93 -0.28,1.75 -0.39,2.49c-0.09,0.52 -0.14,1.14 -0.14,1.84c0,1.2 0.08,2.54 0.22,4.02c0.15,1.48 0.22,2.87 0.22,4.16c0,0.9 -0.06,1.69 -0.19,2.35c-0.14,0.66 -0.38,1.12 -0.73,1.38c-0.64,-0.59 -1.25,-1.23 -1.82,-1.93c-0.57,-0.71 -1.18,-1.46 -1.83,-2.27c-0.64,-0.8 -1.33,-1.67 -2.06,-2.61c-0.73,-0.94 -1.57,-1.93 -2.51,-2.99c-0.2,-0.23 -0.56,-0.79 -1.07,-1.67c-0.52,-0.88 -1.13,-1.95 -1.85,-3.23c-0.72,-1.27 -1.51,-2.67 -2.37,-4.2c-0.87,-1.52 -1.77,-3.06 -2.71,-4.63c-0.93,-1.57 -1.88,-3.09 -2.83,-4.57c-0.95,-1.48 -1.85,-2.79 -2.7,-3.94c-0.85,-1.14 -1.64,-2.05 -2.38,-2.74c-0.73,-0.69 -1.33,-1.03 -1.8,-1.03c-0.53,0 -0.96,0.04 -1.29,0.13c-0.34,0.09 -0.63,0.17 -0.88,0.26c-0.25,0.09 -0.47,0.18 -0.66,0.26c-0.19,0.09 -0.39,0.14 -0.6,0.14c-0.23,0.82 -0.41,1.8 -0.52,2.94c-0.12,1.14 -0.21,2.29 -0.27,3.45c-0.06,1.16 -0.09,2.23 -0.11,3.21c-0.01,0.98 -0.02,1.72 -0.02,2.22c0,3.92 0.29,8.05 0.86,12.39c0.57,4.34 1.25,8.88 2.04,13.65c0.79,4.76 1.61,9.74 2.46,14.94c0.85,5.2 1.56,10.64 2.11,16.32c0.18,0.82 0.43,1.56 0.77,2.2c0.34,0.64 0.7,1.19 1.08,1.65c0.38,0.45 0.75,0.8 1.12,1.03c0.36,0.23 0.65,0.35 0.86,0.35l0.04,0c0.44,-0.06 0.87,-0.27 1.3,-0.64c0.42,-0.36 0.79,-0.84 1.12,-1.42c0.32,-0.59 0.58,-1.24 0.79,-1.96c0.2,-0.72 0.3,-1.46 0.3,-2.22c0,-0.55 -0.05,-1.05 -0.17,-1.49c-0.21,-0.94 -0.38,-1.74 -0.53,-2.4c-0.14,-0.66 -0.28,-1.27 -0.42,-1.84c-0.13,-0.57 -0.25,-1.12 -0.35,-1.65c-0.1,-0.53 -0.22,-1.13 -0.35,-1.8c-0.13,-0.68 -0.28,-1.47 -0.44,-2.38c-0.16,-0.9 -0.36,-1.99 -0.59,-3.25c-0.03,-0.23 -0.13,-0.83 -0.29,-1.78c-0.16,-0.95 -0.36,-2.12 -0.59,-3.51c-0.23,-1.39 -0.5,-2.95 -0.79,-4.68c-0.29,-1.73 -0.59,-3.48 -0.88,-5.25c-0.29,-1.78 -0.58,-3.52 -0.86,-5.23c-0.28,-1.72 -0.52,-3.28 -0.74,-4.68c-0.22,-1.41 -0.4,-2.59 -0.53,-3.54c-0.13,-0.95 -0.2,-1.56 -0.2,-1.83c0,-0.29 -0.02,-0.67 -0.07,-1.14c-0.04,-0.47 -0.08,-0.98 -0.13,-1.54c-0.04,-0.55 -0.08,-1.13 -0.11,-1.73c-0.03,-0.6 -0.04,-1.2 -0.04,-1.78c0,-0.59 0.02,-1.14 0.07,-1.65c0.04,-0.51 0.13,-0.96 0.28,-1.34c0.73,0.56 1.52,1.31 2.35,2.26c0.84,0.95 1.7,2.02 2.59,3.19c0.9,1.17 1.81,2.42 2.73,3.73c0.92,1.32 1.84,2.63 2.77,3.94c0.92,1.3 1.81,2.55 2.68,3.76c0.86,1.2 1.69,2.25 2.48,3.16c0.35,0.64 0.82,1.36 1.41,2.15c0.58,0.79 1.21,1.58 1.87,2.35c0.65,0.78 1.33,1.5 2.02,2.16c0.68,0.66 1.31,1.21 1.86,1.65c1.21,0.9 2.29,1.46 3.26,1.67c0.96,0.2 1.87,0.3 2.72,0.3c0.29,0 0.56,-0.21 0.81,-0.63c0.25,-0.43 0.48,-0.94 0.68,-1.54c0.21,-0.6 0.37,-1.24 0.49,-1.91c0.12,-0.68 0.17,-1.26 0.17,-1.76c0,-0.47 -0.06,-1.13 -0.19,-1.98c-0.14,-0.85 -0.27,-1.8 -0.42,-2.86c-0.15,-1.05 -0.29,-2.15 -0.42,-3.29c-0.13,-1.14 -0.2,-2.24 -0.2,-3.3c0,-0.17 0.01,-0.36 0.03,-0.55c0.01,-0.19 0.02,-0.37 0.02,-0.55c0.06,-0.82 0.15,-1.81 0.28,-2.96c0.14,-1.16 0.41,-2.27 0.84,-3.34c0.42,-1.07 1.04,-1.98 1.84,-2.73c0.81,-0.74 1.92,-1.12 3.32,-1.12c1.44,0 2.81,0.27 4.13,0.82c1.32,0.54 2.63,1.33 3.94,2.37c1.3,1.04 2.63,2.31 3.97,3.82c1.35,1.51 2.77,3.25 4.27,5.21c0.52,0.67 1.09,1.24 1.71,1.71c0.61,0.47 1.04,0.71 1.27,0.71c0.12,0 0.18,-0.06 0.18,-0.18"
                     fill-rule="nonzero" id="path44" />
               </g>
               <g id="g46" transform="translate(184.178 677.717)">
                  <path
                     d="m611.21,886.96c0,3.77 3.06,6.83 6.83,6.83c3.77,0 6.82,-3.06 6.82,-6.83c0,-3.77 -3.05,-6.83 -6.82,-6.83c-3.77,0 -6.83,3.06 -6.83,6.83"
                     fill-rule="nonzero" id="path48" />
               </g>
               <g id="g50" transform="translate(230.167 643.89)">
                  <path
                     d="m611.21,886.96c-24.25,5.95 -58.03,18.74 -95.67,40.65c96.28,18.26 164.79,7.45 223.32,-16.05c-33.49,-12.03 -68.31,-21.76 -127.65,-24.6m247.17,51.83c-53,-0.52 -105,-21.83 -110.61,-24.7c-10.95,3.49 -94.35,47.76 -240.77,17.46c-2.29,-0.47 -2.57,-4.32 -0.69,-5.36c60.65,-33.51 83.93,-38.33 103.41,-44.73c43.31,2.55 72.56,3.13 138.05,26.81c40.76,-17.39 68.86,-25.05 90.56,-26.81c3.7,0.85 3.42,5.38 0.28,6c-18.69,1.5 -44.34,7.55 -82,23.84c32.89,12.52 67.04,21.2 101.77,21.33c3.14,2.03 3.08,4.09 0,6.16"
                     fill-rule="nonzero" id="path52" />
               </g>
            </g>
         </g>
      </g>
   </g>
</svg>