<svg xmlns="http://www.w3.org/2000/svg" xmlns:xlink="http://www.w3.org/1999/xlink" version="1.1" id="Layer_1" x="0px"
    y="0px" viewBox="0 0 36 36" enable-background="new 0 0 36 36" xml:space="preserve">
    <!-- <g class="prefix__layer"> -->
    <path
        d="M3.744 21.312a.19.19 0 00-.031-.094.512.512 0 00-.186-.18.225.225 0 00-.108-.034.653.653 0 00-.24.042 1.097 1.097 0 00-.385.254 1.62 1.62 0 00-.143.167c-.1.127-.203.284-.306.47a5.416 5.416 0 00-.493 1.182 2.023 2.023 0 00-.082.526.25.25 0 00.105.2.44.44 0 00.28.083c.066 0 .146-.03.24-.089.092-.06.19-.14.292-.238a3.398 3.398 0 00.56-.724c.142-.25.26-.503.356-.757a2.31 2.31 0 00.141-.808m3.393-.191c0 .024-.02.095-.061.209a4.75 4.75 0 01-.175.414c-.077.163-.17.342-.28.537a5.36 5.36 0 01-.37.567 5.767 5.767 0 01-.496.597 4.23 4.23 0 01-.469.423c-.149.113-.286.198-.41.255a.81.81 0 01-.327.085.91.91 0 01-.37-.064.57.57 0 01-.234-.197 1.108 1.108 0 01-.149-.333 6.188 6.188 0 01-.11-.479h-.059a7.18 7.18 0 01-.381.528 4.11 4.11 0 01-.43.468c-.148.138-.302.25-.459.336a.963.963 0 01-.465.13.808.808 0 01-.501-.184.762.762 0 01-.263-.601c0-.123.016-.263.046-.42.03-.157.072-.321.125-.492a7.015 7.015 0 01.398-1.012 5.35 5.35 0 01.232-.424c.078-.126.154-.227.226-.302.083-.089.181-.179.293-.271a2.539 2.539 0 01.812-.436 1.65 1.65 0 01.493-.073c.138 0 .243.046.312.136.07.09.119.227.146.41a.135.135 0 00.032.059l.059.075c.02.028.039.057.056.085.017.03.024.06.024.09 0 .045-.01.1-.028.166-.02.064-.042.138-.065.22a3.696 3.696 0 00-.065.268 1.552 1.552 0 00-.029.302c0 .145.001.299.004.463.003.164.02.315.048.453.029.138.077.252.146.344a.349.349 0 00.299.137.493.493 0 00.24-.082c.092-.056.196-.134.308-.235.113-.1.231-.22.355-.358.123-.14.25-.292.382-.46.15-.191.28-.381.392-.569.11-.187.209-.354.292-.5a7.93 7.93 0 01.213-.356c.058-.09.108-.134.15-.134h.005c.046.003.077.016.09.041.015.025.022.057.022.096v.041c0 .014-.001.03-.004.047" />
    <path
        d="M10.5 22.068c0 .13-.08.335-.239.613-.03.053-.072.116-.127.19-.054.074-.114.15-.181.23-.067.079-.136.16-.208.242a5.067 5.067 0 01-.214.227 3.855 3.855 0 01-.748.58c-.14.08-.286.145-.434.194a1.395 1.395 0 01-.979-.032 1.147 1.147 0 01-.436-.32 1.57 1.57 0 01-.292-.546 2.503 2.503 0 01-.107-.773c0-.204.01-.415.03-.637.019-.22.045-.443.075-.665a24.946 24.946 0 01.217-1.293c.025-.14.047-.254.065-.343.018-.088.033-.171.047-.246a5.95 5.95 0 00.038-.227c.01-.077.025-.172.042-.286.01-.078.021-.147.031-.207.01-.06.018-.109.023-.148a.782.782 0 01.056-.192.624.624 0 01.1-.162.455.455 0 01.14-.113.37.37 0 01.175-.042c.134 0 .233.063.296.188a4.91 4.91 0 01-.052.248 4.01 4.01 0 00-.047.253 127.294 127.294 0 01-.267 1.31c-.033.175-.07.364-.106.568-.038.202-.074.41-.105.62-.032.212-.058.421-.078.627a6.279 6.279 0 00-.028.576c0 .191.015.366.045.523.03.157.08.291.149.403a.729.729 0 00.263.259.78.78 0 00.39.092c.167 0 .33-.037.492-.111.161-.074.317-.168.465-.281.149-.114.29-.24.423-.378.134-.138.257-.271.368-.4a36.534 36.534 0 01.4-.466c.036-.042.077-.085.124-.13.045-.044.088-.066.127-.066.045 0 .067.04.067.12" />
    <path
        d="M15.365 21.726c0 .1-.036.19-.109.271a1.643 1.643 0 01-.116.11c-.054.046-.101.09-.143.132l-.383.384a5.923 5.923 0 01-.368.342c-.08.066-.176.147-.29.24l-.39.323c-.29.239-.556.436-.801.588-.245.15-.507.271-.786.361-.28.09-.576.136-.887.136a1.097 1.097 0 01-.9-.394 1.305 1.305 0 01-.237-.437 1.62 1.62 0 01-.077-.53c0-.369.078-.74.235-1.11.158-.369.367-.734.629-1.092.141-.19.312-.37.512-.543.198-.172.377-.259.539-.259.086 0 .185.073.296.218a2.41 2.41 0 01.296.492c.084.18.126.312.126.393a.9.9 0 01-.075.312c-.05.128-.11.192-.18.192-.1 0-.183-.068-.25-.204a1.551 1.551 0 01-.074-.178 2.467 2.467 0 00-.215-.516.763.763 0 00-.458.272c-.059.072-.12.16-.181.261a6.95 6.95 0 00-.199.344c-.056.1-.107.213-.154.338a3.51 3.51 0 00-.121.386c-.033.132-.06.264-.08.396a2.606 2.606 0 00-.028.37c0 .161.07.319.208.471.142.148.295.222.46.222.355 0 .693-.063 1.013-.188.32-.126.627-.293.922-.5.292-.204.588-.442.889-.715.15-.135.292-.265.427-.385l.387-.349c.203-.178.37-.267.504-.267.04 0 .059.038.059.113" />
    <path
        d="M17.493 21.93c0-.275-.08-.49-.236-.647-.157-.155-.383-.233-.678-.233-.1 0-.202.026-.304.079a1.636 1.636 0 00-.297.196c-.095.078-.181.16-.26.248a3.931 3.931 0 00-.2.236c-.051.073-.11.17-.174.294a4.662 4.662 0 00-.181.397c-.057.14-.105.28-.143.421-.037.14-.056.263-.056.37 0 .063.013.128.037.193.026.066.061.124.107.176a.61.61 0 00.165.127c.064.033.135.05.213.05a.957.957 0 00.323-.075c.132-.05.273-.12.422-.206.148-.089.298-.192.448-.314.15-.12.286-.252.407-.394.121-.142.219-.29.294-.446a1.08 1.08 0 00.113-.472m.651-.12a2.424 2.424 0 01-.05.487 1.912 1.912 0 01-.067.227 2.577 2.577 0 01-.1.236c-.04.086-.11.19-.213.31-.103.119-.226.242-.37.37a6.091 6.091 0 01-.99.718c-.175.1-.347.18-.515.243-.17.06-.321.09-.458.09a1.18 1.18 0 01-.488-.093 1.036 1.036 0 01-.346-.246 1.018 1.018 0 01-.207-.349 1.2 1.2 0 01-.069-.396c0-.089.012-.19.034-.304a4.517 4.517 0 01.216-.73 5.479 5.479 0 01.33-.694c.06-.1.116-.185.171-.254a2.726 2.726 0 011.333-.889c.188-.055.383-.083.583-.083.15 0 .297.037.442.11.145.074.273.174.386.299.113.125.203.27.274.434.069.164.104.335.104.513M23.931 18.567a.36.36 0 01-.044.173 1.523 1.523 0 01-.077.137 21.37 21.37 0 01-.13.207 2.108 2.108 0 01-.19.105c-.037.016-.073.03-.108.042a.305.305 0 01-.37-.146.629.629 0 01.055-.152 2.319 2.319 0 01.205-.34c.039-.054.075-.097.108-.13.092-.097.174-.147.246-.147.036 0 .072.008.108.023.037.016.07.035.1.059.029.024.051.05.07.079a.18.18 0 01.027.09m2.136 3.091a.418.418 0 01-.052.174 2.927 2.927 0 01-.273.43l-.117.152a11.549 11.549 0 01-.753.807 7.24 7.24 0 01-.444.394 4.624 4.624 0 01-.462.335 2.605 2.605 0 01-.455.231 1.18 1.18 0 01-.423.086.57.57 0 01-.314-.086.567.567 0 01-.188-.215.911.911 0 01-.093-.309 2.807 2.807 0 01-.022-.363c0-.06.006-.162.019-.304.012-.142.025-.293.041-.453.016-.16.029-.31.042-.452.013-.143.018-.244.018-.305 0-.053-.002-.095-.005-.125l-.016-.092a35.615 35.615 0 01-1.222.19c-.217.029-.43.054-.64.074-.21.021-.401.037-.574.044 0 .065 0 .144-.002.238l-.008.31-.013.348-.015.357c-.016.403-.038.786-.065 1.146-.026.362-.06.693-.104.992-.043.299-.099.56-.169.786-.07.226-.156.405-.258.538a.322.322 0 01-.077.07.66.66 0 01-.324.102.517.517 0 01-.41-.184.65.65 0 01-.153-.438c0-.047.03-.071.091-.071.04 0 .087.009.14.028a.426.426 0 00.128.026c.094 0 .17-.038.227-.115a.899.899 0 00.136-.273c.033-.106.057-.213.07-.323l.034-.265c.053-.498.087-1.012.105-1.542.016-.53.026-1.09.028-1.683-.083.008-.141.014-.175.019a.786.786 0 01-.087.005c-.026 0-.057 0-.096-.002l-.196-.001a.97.97 0 01-.14-.013.635.635 0 01-.144-.042.325.325 0 01-.11-.077.167.167 0 01-.044-.12.37.37 0 01.02-.133.17.17 0 01.081-.087.498.498 0 01.166-.048c.069-.01.16-.015.27-.015.078 0 .156 0 .232-.004.077-.003.154-.011.232-.025a9.891 9.891 0 01.054-.807c.017-.144.037-.287.06-.432.024-.145.056-.286.094-.426.073-.264.163-.494.27-.688.106-.195.223-.355.348-.483a1.35 1.35 0 01.393-.283.952.952 0 01.4-.094c.233 0 .415.062.546.186.131.124.197.32.197.59 0 .04-.006.096-.017.17-.012.073-.03.144-.054.21a.396.396 0 01-.073.14c-.024.023-.047.036-.069.036-.025 0-.056-.065-.092-.193a2.042 2.042 0 00-.064-.183.718.718 0 00-.084-.147.353.353 0 00-.115-.097.334.334 0 00-.158-.035.612.612 0 00-.428.164c-.121.11-.222.27-.303.48-.08.21-.141.47-.181.778a8.21 8.21 0 00-.06 1.064 17.149 17.149 0 00.659-.04c.119-.01.238-.022.358-.037.12-.016.234-.034.343-.057.27-.05.514-.107.732-.17.218-.064.43-.141.636-.23a.847.847 0 00.096-.046.191.191 0 01.096-.02c.053 0 .1.031.14.097.04.065.06.165.06.3 0 .165-.008.336-.025.51l-.052.52c-.018.172-.036.342-.052.51-.017.17-.026.33-.026.486 0 .05.005.1.014.15.008.05.02.097.04.138a.277.277 0 00.07.1c.03.025.066.038.11.038.1 0 .212-.028.332-.083.122-.056.244-.128.37-.217.125-.09.25-.188.373-.299a9.235 9.235 0 00.644-.628l.21-.229c.086-.098.162-.187.227-.27l.171-.214c.049-.061.09-.108.125-.142.035-.034.065-.05.09-.05.056 0 .096.02.12.06.026.04.038.093.038.156" />
    <path
        d="M26.893 20.528c0 .028-.01.066-.03.113a1.018 1.018 0 01-.078.152c-.033.054-.072.11-.117.167-.044.057-.092.11-.142.157-.033.03-.07.065-.108.106-.04.04-.074.084-.107.13a.741.741 0 00-.08.143.364.364 0 00-.03.142c0 .131.024.26.072.385.05.128.128.273.237.437l.174.255c.068.094.134.195.2.302.067.107.129.22.185.338.055.118.097.239.124.36.26-.216.512-.45.758-.702a12.621 12.621 0 001.262-1.509c.17-.242.308-.461.413-.659l.111-.202c.03-.054.056-.098.082-.132a.248.248 0 01.072-.07.156.156 0 01.082-.021c.056 0 .095.019.121.058a.304.304 0 01.037.163.97.97 0 01-.082.304c-.054.14-.14.311-.256.515a8.885 8.885 0 01-.453.701 13.85 13.85 0 01-.67.866 8.408 8.408 0 01-.492.537 12.438 12.438 0 01-1.18 1.039 8.99 8.99 0 01-.574.412c-.18.119-.342.213-.489.282a.874.874 0 01-.343.105.226.226 0 01-.128-.04.438.438 0 01-.104-.096.547.547 0 01-.071-.119.289.289 0 01.017-.275.517.517 0 01.117-.13.874.874 0 01.167-.104c.062-.031.125-.06.19-.088l.141-.054.162-.06c.056-.022.11-.045.162-.071a.618.618 0 00.127-.086.641.641 0 00.138-.194.543.543 0 00.05-.227.45.45 0 00-.046-.171 1.694 1.694 0 00-.121-.223 6.752 6.752 0 00-.167-.25l-.184-.26-.173-.242a2.336 2.336 0 01-.131-.202 2.08 2.08 0 01-.167-.346.929.929 0 01-.05-.561c.014-.069.032-.139.054-.211a5.39 5.39 0 01.069-.209c.024-.066.046-.122.068-.167l.057-.087a1.83 1.83 0 01.108-.15c.043-.056.092-.115.144-.178a2.62 2.62 0 01.161-.174 1.03 1.03 0 01.159-.129.262.262 0 01.14-.05.54.54 0 01.294.076.23.23 0 01.118.204" />
    <path
        d="M35.263 21.855a3.574 3.574 0 01-.063.48.506.506 0 01-.032.116 4.1 4.1 0 01-.366.554 3.1 3.1 0 01-.444.465 2.31 2.31 0 01-.492.32 1.24 1.24 0 01-.929.059.846.846 0 01-.476-.403 1.482 1.482 0 01-.108-.268 2.303 2.303 0 01-.06-.27 19.805 19.805 0 01-.037-.236 1.039 1.039 0 01-.014-.174c0-.114.008-.241.021-.382.014-.14.021-.272.021-.395 0-.085-.006-.16-.018-.223-.013-.063-.036-.106-.07-.131-.06.056-.118.117-.172.183l-.174.216-.195.247c-.07.09-.15.184-.239.284a1.29 1.29 0 00-.101.159 125.61 125.61 0 00-.4.705l-.258.44c-.089.15-.179.293-.27.434-.09.14-.175.265-.255.374-.081.108-.156.195-.226.26-.07.066-.127.098-.171.098a.482.482 0 01-.123-.012 1.04 1.04 0 01-.146-.05.132.132 0 00-.057-.013 1.617 1.617 0 01-.05-.28 6.176 6.176 0 01-.035-.632l-.002-.21c0-.373.027-.765.081-1.177.054-.412.119-.843.194-1.296l.234-1.418c.08-.494.148-1.01.2-1.55a.82.82 0 01.176-.365.472.472 0 01.106-.098.172.172 0 01.082-.033h.003a.24.24 0 01.124.06c.04.035.075.08.106.135a.94.94 0 01.075.186.784.784 0 01.029.211c0 .052-.005.1-.017.142l-.05.227c-.013.063-.026.121-.04.175a4.277 4.277 0 00-.033.157l-.033.17c-.013.065-.027.14-.042.227l-.056.308a7.455 7.455 0 01-.028.17l-.056.333c-.021.131-.047.28-.075.444l-.083.498-.082.497-.07.444c-.02.134-.038.246-.05.336-.013.09-.02.149-.02.174 0 .028-.001.064-.006.108l-.012.147a1.617 1.617 0 00-.008.49.443.443 0 00.027.127c.069-.053.144-.125.223-.215.08-.09.161-.192.246-.303.085-.11.172-.23.259-.354a52.696 52.696 0 01.517-.731c.082-.114.16-.214.236-.3.033-.06.078-.13.134-.204a3.805 3.805 0 01.37-.428c.064-.063.123-.115.176-.157a.84.84 0 01.31-.159 1.27 1.27 0 01.257-.028c.028 0 .054.02.077.06.024.04.046.089.065.146a1.178 1.178 0 01.063.348c0 .045-.006.108-.018.188-.014.081-.026.171-.04.272-.015.1-.028.204-.04.312a2.77 2.77 0 00-.02.314c0 .016.002.034.004.052l.002.052c.005.078.014.172.026.281.013.11.04.216.08.317.04.102.099.188.175.26a.45.45 0 00.315.106c.137 0 .267-.026.392-.078.125-.051.25-.126.374-.225s.25-.22.377-.363c.128-.143.263-.308.405-.494a.876.876 0 01.163-.163c.058-.044.099-.067.12-.067.012 0 .017.006.017.017M6.98 12.523a.649.649 0 111.298 0 .649.649 0 01-1.298 0" />
    <path
        d="M11.347 15.735c-2.303-.565-5.51-1.78-9.084-3.86 9.142-1.734 15.647-.707 21.204 1.524-3.18 1.142-6.486 2.066-12.12 2.336m23.468-4.921c-5.032.05-9.97 2.072-10.502 2.345-1.04-.331-8.958-4.535-22.86-1.658-.218.045-.245.41-.066.509 5.758 3.182 7.969 3.64 9.818 4.247 4.112-.242 6.89-.297 13.108-2.545 3.87 1.65 6.538 2.378 8.598 2.545.352-.08.325-.51.027-.57-1.775-.142-4.21-.716-7.786-2.263 3.123-1.189 6.366-2.013 9.663-2.025.298-.193.293-.389 0-.585" />
    <!-- </g> -->
</svg>