<?xml version="1.0" encoding="UTF-8" standalone="no"?>
<svg
   version="1.1"
   width="3480.8923"
   height="667.27551"
   id="svg14"
   xmlns="http://www.w3.org/2000/svg"
   xmlns:svg="http://www.w3.org/2000/svg">
  <defs
     id="defs14">
    <filter
       id="white-outline"
       x="-0.0046228962"
       y="-0.0037748637"
       width="1.0092458"
       height="1.0075497">
      <feMorphology
         operator="dilate"
         radius="2.5"
         in="SourceAlpha"
         result="dilated"
         id="feMorphology1" />
      <feFlood
         flood-color="#FFFFFF"
         result="white"
         id="feFlood1" />
      <feComposite
         in="white"
         in2="dilated"
         operator="in"
         result="outline"
         id="feComposite1" />
      <feMerge
         id="feMerge2">
        <feMergeNode
           in="outline"
           id="feMergeNode1" />
        <feMergeNode
           in="SourceGraphic"
           id="feMergeNode2" />
      </feMerge>
    </filter>
  </defs>
  <g
     id="g3"
     transform="translate(-239.06151,-178.61165)">
    <g
       filter="url(#white-outline)"
       id="g2">
      <path
         d="M 0,0 C 1.7734375,1.3945312 1.7734375,1.3945312 3.5625,3.0625 4.2972656,3.7057422 5.0320312,4.3489844 5.7890625,5.0117187 15.190234,13.768328 23.639702,26.004007 24.835937,39.042969 25.084457,46.890461 24.119399,52.565163 19.5625,59.0625 c -5.698998,5.845126 -13.0335825,6.381584 -20.75,7.375 -14.578249,2.075854 -26.396238,6.794392 -35.625,18.9375 -9.730509,14.476615 -12.922187,30.63696 -14.625,47.6875 0.580078,0.0606 1.160156,0.12117 1.757813,0.18359 0.781171,0.0838 1.562343,0.16758 2.367187,0.25391 1.148555,0.12182 1.148555,0.12182 2.320313,0.24609 2.554687,0.31641 2.554687,0.31641 5.328125,0.9961 4.324807,0.42934 7.630178,-0.68461 11.726562,-1.99219 31.2297842,-9.89319 64.643525,-6.19218 93.558594,8.34766 6.794695,3.53862 12.538468,7.37969 17.895263,12.87573 8.209568,8.42065 16.453432,11.07694 27.587163,14.31079 21.82017,6.90654 38.28763,24.82614 48.62475,44.62744 1.68892,3.34879 3.27891,6.7383 4.83423,10.15088 0.53496,1.16918 1.06992,2.33836 1.62109,3.54297 11.02713,25.80634 15.37342,54.96922 15.65235,82.875 0.0126,1.15924 0.0251,2.31848 0.0381,3.51285 0.24514,28.09854 -0.66017,55.3454 -5.31154,83.06918 -0.12824,0.77849 -0.25648,1.55699 -0.38861,2.35907 -3.86792,23.42473 -9.16228,46.48659 -15.05676,69.47705 -0.5432,2.1193 -1.08308,4.23942 -1.6225,6.35968 -6.48709,25.42466 -14.24014,49.46734 -25.68213,73.1167 -0.4622,0.95569 -0.4622,0.95569 -0.93375,1.93069 -17.50381,36.07606 -42.124134,65.30583 -80.75375,79.50681 -1.511598,0.44902 -3.03415,0.86181 -4.5625,1.25 -1.075078,0.27715 -2.150156,0.5543 -3.257813,0.83984 -14.210035,3.16589 -29.898726,3.99663 -44.117187,0.59766 -3.6685516,-0.69209 -4.9676732,-0.84909 -8.1640625,1.15234 -1.6779889,1.55814 -3.3061765,3.17123 -4.8867185,4.82813 -18.987509,19.04513 -49.981228,21.88354 -75.306885,21.96924 -9.678277,-0.11711 -17.395794,-1.49113 -26.267334,-5.38721 -1.08152,-0.45762 -2.16305,-0.91523 -3.27734,-1.38672 -7.85001,-3.61318 -14.61345,-8.50407 -20.72266,-14.61328 -5.04455,-0.12559 -10.02092,1.20245 -14.86035,2.49805 -24.1983,5.67682 -51.08333,-0.30126 -72.13965,-12.87305 -54.23505,-33.81581 -76.66343,-101.40412 -96.90698,-158.56055 -0.83539,-2.34213 -1.68664,-4.67368 -2.56958,-6.99804 -12.40784,-32.82989 -22.13918,-66.53887 -28.52344,-101.06641 -0.15018,-0.79132 -0.30035,-1.58265 -0.45508,-2.39795 -3.58539,-19.07253 -4.99118,-38.27333 -4.98242,-57.66455 -4e-4,-0.9285 -8.1e-4,-1.857 -10e-4,-2.81363 0.0938,-37.81731 9.59315,-78.22129 35.43872,-107.12387 0.44779,-0.50531 0.89558,-1.01063 1.35693,-1.53125 13.24394,-14.73083 31.6769,-26.86239 51.64307,-29.46875 2.79358,-0.10961 5.57987,-0.0953 8.375,-0.0625 0.73605,0.005 1.47211,0.009 2.23047,0.0137 1.79821,0.0117 3.59638,0.0296 5.39453,0.0488 0.24879,-0.58137 0.49758,-1.16273 0.75391,-1.76172 7.0992,-12.75187 24.94587,-19.83685 38.28515,-23.85205 4.61935,-1.29864 9.27198,-2.37029 13.96094,-3.38623 1.45406,-0.34031 1.45406,-0.34031 2.9375,-0.6875 18.99854,-3.88606 39.89531,-2.04188 57.62427,5.79346 5.6468,2.39209 9.74322,1.79238 15.43823,-0.10596 1.3944,-0.0667 2.7917,-0.0854 4.1875,-0.0625 1.25813,0.0206 2.51625,0.0412 3.8125,0.0625 -0.0254,-0.65194 -0.0508,-1.30389 -0.0769,-1.97559 -0.15935,-7.34921 0.75212,-14.09513 2.2644,-21.27441 0.22776,-1.09756 0.45552,-2.19511 0.69019,-3.32593 8.43853,-39.44675 34.346163,-76.196066 68.12231,-98.42407 4.553921,-2.9019828 9.207692,-5.5128526 14,-8 0.986133,-0.5298047 1.972266,-1.0596094 2.988281,-1.6054688 C -20.930804,-2.6580894 -8.7020312,-4.9849959 0,0 Z"
         fill="#fdfdfd"
         transform="translate(600.4375,183.9375)"
         id="path2" />
      <path
         d="M 0,0 C 1.7734375,1.3945312 1.7734375,1.3945312 3.5625,3.0625 4.2972656,3.7057422 5.0320312,4.3489844 5.7890625,5.0117187 15.190234,13.768328 23.639702,26.004007 24.835937,39.042969 25.084457,46.890461 24.119399,52.565163 19.5625,59.0625 c -5.698998,5.845126 -13.0335825,6.381584 -20.75,7.375 -14.578249,2.075854 -26.396238,6.794392 -35.625,18.9375 -9.730509,14.476615 -12.922187,30.63696 -14.625,47.6875 0.580078,0.0606 1.160156,0.12117 1.757813,0.18359 0.781171,0.0838 1.562343,0.16758 2.367187,0.25391 1.148555,0.12182 1.148555,0.12182 2.320313,0.24609 2.554687,0.31641 2.554687,0.31641 5.328125,0.9961 4.324807,0.42934 7.630178,-0.68461 11.726562,-1.99219 31.2297842,-9.89319 64.643525,-6.19218 93.558594,8.34766 6.794695,3.53862 12.538468,7.37969 17.895263,12.87573 8.209568,8.42065 16.453432,11.07694 27.587163,14.31079 21.82017,6.90654 38.28763,24.82614 48.62475,44.62744 1.68892,3.34879 3.27891,6.7383 4.83423,10.15088 0.53496,1.16918 1.06992,2.33836 1.62109,3.54297 11.02713,25.80634 15.37342,54.96922 15.65235,82.875 0.0126,1.15924 0.0251,2.31848 0.0381,3.51285 0.24514,28.09854 -0.66017,55.3454 -5.31154,83.06918 -0.12824,0.77849 -0.25648,1.55699 -0.38861,2.35907 -3.86792,23.42473 -9.16228,46.48659 -15.05676,69.47705 -0.5432,2.1193 -1.08308,4.23942 -1.6225,6.35968 -6.48709,25.42466 -14.24014,49.46734 -25.68213,73.1167 -0.4622,0.95569 -0.4622,0.95569 -0.93375,1.93069 -17.50381,36.07606 -42.124134,65.30583 -80.75375,79.50681 -1.511598,0.44902 -3.03415,0.86181 -4.5625,1.25 -1.075078,0.27715 -2.150156,0.5543 -3.257813,0.83984 -14.210035,3.16589 -29.898726,3.99663 -44.117187,0.59766 -3.6685516,-0.69209 -4.9676732,-0.84909 -8.1640625,1.15234 -1.6779889,1.55814 -3.3061765,3.17123 -4.8867185,4.82813 -18.987509,19.04513 -49.981228,21.88354 -75.306885,21.96924 -9.678277,-0.11711 -17.395794,-1.49113 -26.267334,-5.38721 -1.08152,-0.45762 -2.16305,-0.91523 -3.27734,-1.38672 -7.85001,-3.61318 -14.61345,-8.50407 -20.72266,-14.61328 -5.04455,-0.12559 -10.02092,1.20245 -14.86035,2.49805 -24.1983,5.67682 -51.08333,-0.30126 -72.13965,-12.87305 -54.23505,-33.81581 -76.66343,-101.40412 -96.90698,-158.56055 -0.83539,-2.34213 -1.68664,-4.67368 -2.56958,-6.99804 -12.40784,-32.82989 -22.13918,-66.53887 -28.52344,-101.06641 -0.15018,-0.79132 -0.30035,-1.58265 -0.45508,-2.39795 -3.58539,-19.07253 -4.99118,-38.27333 -4.98242,-57.66455 -4e-4,-0.9285 -8.1e-4,-1.857 -10e-4,-2.81363 0.0938,-37.81731 9.59315,-78.22129 35.43872,-107.12387 0.44779,-0.50531 0.89558,-1.01063 1.35693,-1.53125 13.24394,-14.73083 31.6769,-26.86239 51.64307,-29.46875 2.79358,-0.10961 5.57987,-0.0953 8.375,-0.0625 0.73605,0.005 1.47211,0.009 2.23047,0.0137 1.79821,0.0117 3.59638,0.0296 5.39453,0.0488 0.24879,-0.58137 0.49758,-1.16273 0.75391,-1.76172 7.0992,-12.75187 24.94587,-19.83685 38.28515,-23.85205 4.61935,-1.29864 9.27198,-2.37029 13.96094,-3.38623 1.45406,-0.34031 1.45406,-0.34031 2.9375,-0.6875 18.99854,-3.88606 39.89531,-2.04188 57.62427,5.79346 5.6468,2.39209 9.74322,1.79238 15.43823,-0.10596 1.3944,-0.0667 2.7917,-0.0854 4.1875,-0.0625 1.25813,0.0206 2.51625,0.0412 3.8125,0.0625 -0.0254,-0.65194 -0.0508,-1.30389 -0.0769,-1.97559 -0.15935,-7.34921 0.75212,-14.09513 2.2644,-21.27441 0.22776,-1.09756 0.45552,-2.19511 0.69019,-3.32593 8.43853,-39.44675 34.346163,-76.196066 68.12231,-98.42407 4.553921,-2.9019828 9.207692,-5.5128526 14,-8 0.986133,-0.5298047 1.972266,-1.0596094 2.988281,-1.6054688 C -20.930804,-2.6580894 -8.7020312,-4.9849959 0,0 Z m -32.4375,144.0625 c -6.577268,0.56116 -12.660789,-0.28504 -19,-2 -0.232689,6.28261 0.595455,11.88019 2,18 2.228484,0.75207 4.457765,1.50165 6.6875,2.25 1.241367,0.41766 2.482734,0.83531 3.761719,1.26562 0.705842,0.22881 1.411684,0.45762 2.138916,0.69336 1.749766,0.57387 3.491579,1.17217 5.228027,1.78516 9.78035,3.29039 19.411208,4.26514 29.6171876,5.21484 20.7508254,1.97519 20.7508254,1.97519 26.5666504,7.79102 -0.01172,2.33594 -0.01172,2.33594 -1,5 -1.915366,1.74016 -3.70549,3.1614 -5.8125,4.625 -4.781692,3.49575 -9.3262454,7.11422 -13.6875,11.125 -0.9384375,0.86109 -1.876875,1.72219 -2.84375,2.60937 -2.7714776,2.75518 -5.203981,5.60195 -7.65625,8.64063 1.0248047,0.67547 2.0496094,1.35094 3.1054687,2.04687 1.3607598,0.90092 2.72143228,1.80197 4.0820313,2.70313 0.6735352,0.44344 1.3470703,0.88687 2.0410156,1.34375 10.2026544,6.76859 10.2026544,6.76859 11.7714844,9.90625 -1.102148,-0.50789 -2.204297,-1.01578 -3.339844,-1.53906 C -5.4448858,217.92859 -22.496606,211.34605 -40.5625,208 c -0.822422,-0.16049 -1.644844,-0.32098 -2.492187,-0.48633 -14.496484,-2.73456 -28.660167,-3.86021 -43.382813,-3.82617 -1.274601,3.2e-4 -1.274601,3.2e-4 -2.574951,6.4e-4 -29.521019,0.073 -59.644039,5.19336 -82.425049,25.37436 -0.67031,0.51691 -1.34062,1.03383 -2.03125,1.56641 -23.73784,18.79245 -37.17725,58.48697 -40.96875,87.43359 -1.07857,-31.63793 10.68002,-66.32144 32.08203,-90.01172 5.36451,-5.65428 11.43798,-10.66829 17.91797,-14.98828 -4.39359,-10.55443 -17.05557,-18.42357 -26,-25 -1.33412,-0.99895 -2.66782,-1.99846 -4,-3 1.97925,-5.12603 5.53662,-6.58635 10.37109,-8.75781 6.01574,-1.96415 12.29863,-1.72491 18.56641,-1.80469 10.54665,-0.1441 18.51435,-0.69853 28.0625,-5.4375 1.43576,-0.62511 2.87339,-1.24593 4.3125,-1.86328 1.4811,-0.6663 2.9603,-1.33683 4.4375,-2.01172 0.69319,-0.30301 1.38639,-0.60602 2.10059,-0.91821 3.64245,-1.776 5.01003,-2.87417 6.59472,-6.65601 0.45555,-2.91611 0.77015,-5.54824 0.67969,-8.48828 -0.0181,-0.77215 -0.0361,-1.5443 -0.0547,-2.33984 -0.0232,-0.56848 -0.0464,-1.13696 -0.0703,-1.72266 -3.46942,0.45822 -6.67395,0.89132 -10,2 -6.18081,0.40767 -10.54632,-0.60301 -16.25,-2.875 -24.23462,-8.97075 -52.94943,-6.98448 -76.75,2.875 -7.10251,3.38807 -13.75638,7.20839 -20,12 2.34637,2.34637 3.62372,2.55149 6.8125,3.3125 9.60231,2.51099 18.31679,5.56583 26.1875,11.6875 0.66,0 1.32,0 2,0 0,0.66 0,1.32 0,2 -0.84027,-0.45512 -0.84027,-0.45512 -1.69751,-0.91943 -19.26573,-9.04147 -48.72202,-9.57314 -68.86499,-3.4087 -9.77212,3.7756 -18.4906,8.41085 -26.4375,15.32813 -0.80953,0.66645 -1.61906,1.33289 -2.45312,2.01953 -13.80197,11.7486 -23.45219,28.03581 -29.47657,45.01563 -1.07031,2.96484 -1.07031,2.96484 -2.54297,6.21484 -1.918,4.42266 -2.9913,9.00572 -4.08984,13.6875 -0.20818,0.83596 -0.41637,1.67191 -0.63086,2.5332 -3.82487,16.07886 -4.25031,32.08117 -4.24414,48.5293 -4e-4,1.10426 -8.1e-4,2.20853 -10e-4,3.34625 0.0377,18.01714 1.2461,35.00228 5.01434,52.64838 0.45203,2.13604 0.88619,4.2752 1.31745,6.41553 3.75827,18.57018 8.25426,36.72388 14.18066,54.73413 0.95752,2.95207 1.86307,5.91662 2.76221,8.88696 26.30634,86.47395 26.30634,86.47395 74.16406,161.96875 0.78891,0.92168 1.57781,1.84336 2.39063,2.79297 17.13202,19.52943 40.84893,34.42922 67.21972,36.40234 11.26151,0.49267 22.28883,-0.28549 33.38965,-2.19531 -1.54878,-3.46863 -3.63658,-6.16228 -6,-9.125 -14.2065,-18.51914 -23.10145,-40.99457 -30.875,-62.8125 -0.2292,-0.64005 -0.4584,-1.2801 -0.69455,-1.93954 -2.8419,-7.98018 -5.29471,-15.98824 -7.40237,-24.19205 -0.70746,-2.7489 -1.46477,-5.47805 -2.25733,-8.20362 -2.91802,-10.0662 -5.1933,-20.12387 -7.02881,-30.44165 -0.43088,-2.41871 -0.87547,-4.83461 -1.32202,-7.25048 -1.82172,-9.97758 -3.27926,-19.95743 -4.41992,-30.03516 12.39914,36.23498 12.39914,36.23498 16.05859,52.06641 1.02421,4.4241 2.40897,8.68873 3.92261,12.96899 1.0175,2.9608 1.94211,5.93632 2.84693,8.93335 5.86578,19.15001 12.29338,38.05096 21.17187,56.03125 0.43458,0.88688 0.86915,1.77375 1.31689,2.6875 5.35847,10.84256 10.79775,21.07498 18.68311,30.3125 0.41717,0.4979 0.83435,0.9958 1.26416,1.50879 11.35531,13.45471 24.55841,23.03111 41.73584,27.49121 0.881477,0.2591 0.881477,0.2591 1.780762,0.52344 14.24011,3.05794 31.205088,0.97601 45.219238,-2.52344 1.517871,-0.29004 1.517871,-0.29004 3.066406,-0.58594 C -27.989538,640.887 -8.4700413,624.78479 4.1616211,606.26465 17.151924,585.8442 25.033609,563.63648 31.128906,540.38281 c 1.557402,-5.88969 3.381677,-11.67945 5.252198,-17.47583 1.679723,-5.21447 3.238638,-10.45227 4.743896,-15.71948 2.074458,-7.21858 4.594273,-14.16817 7.4375,-21.125 0.113913,4.75907 -0.23496,9.05253 -1.179688,13.71484 -0.127894,0.6358 -0.255788,1.2716 -0.387557,1.92667 -0.426725,2.10068 -0.865743,4.19848 -1.307755,6.29599 -0.152945,0.73137 -0.30589,1.46274 -0.46347,2.21628 -11.961463,56.95267 -11.961463,56.95267 -23.66153,81.84622 -0.347725,0.74411 -0.695449,1.48822 -1.053711,2.25488 -3.8176,7.99648 -8.484266,15.28232 -13.7978515,22.35718 -2.3908291,2.87622 -2.3908291,2.87622 -3.1484375,6.38794 34.319375,0.67401 62.377791,-5.00163 88.244141,-29.28711 22.510169,-21.95931 35.071289,-51.72913 45.755859,-80.71289 0.42354,-1.12455 0.84708,-2.24909 1.28345,-3.40771 3.16698,-8.57546 5.58676,-17.23301 7.77905,-26.09229 0.65434,-2.6154 1.31275,-5.22975 1.97266,-7.84375 0.48424,-1.91885 0.48424,-1.91885 0.97827,-3.87646 0.9492,-3.63662 1.97194,-7.24255 3.02563,-10.8501 2.036,-7.04596 3.71381,-14.13949 5.27344,-21.30469 0.21819,-1.0018 0.21819,-1.0018 0.4408,-2.02383 3.99107,-18.42929 7.31637,-36.9755 10.2467,-55.60117 0.29463,-1.84634 0.29463,-1.84634 0.59521,-3.72998 2.66449,-17.54484 2.68044,-35.12571 2.71729,-52.83252 0.006,-1.73761 0.006,-1.73761 0.0117,-3.51031 0.0307,-18.71513 -0.73442,-37.12199 -4.57419,-55.48969 -0.21616,-1.04809 -0.43232,-2.09618 -0.65503,-3.17603 -5.30708,-24.85152 -14.42172,-47.80935 -31.09497,-67.26147 -0.5182,-0.61488 -1.03641,-1.22977 -1.57031,-1.86328 -11.8886,-12.99382 -31.97186,-22.04173 -49.42969,-23.13672 -12.487763,-0.55147 -24.64132,0.20703 -37,2 9.679825,-6.83282 20.236566,-9.52852 32,-10 C 62.848508,145.45422 36.961813,137.5274 13.25,136.85937 c -24.113631,-0.96066 -24.113631,-0.96066 -45.6875,7.20313 z"
         fill="#0a0909"
         transform="translate(600.4375,183.9375)"
         id="path3" />
      <path
         d="M 0,0 C 1.0694235,3.2082706 0.97413864,5.2117747 0.8125,8.5625 0.76028513,17.219725 3.6934383,24.382847 9.1132813,31.113281 15.590437,37.590437 22.95295,41.038383 32,42 c -1.285862,3.964742 -2.383951,5.890638 -6,8 -2.542155,0.458046 -4.939599,0.778604 -7.5,1 -15.3760644,1.679066 -30.940728,5.814556 -41.5,18 -16.54623,22.453598 -22.000017,50.04605 -18.503906,77.56641 1.997348,12.78874 5.914981,25.10409 16.671875,33.03125 5.127372,3.1682 8.851973,3.94598 14.832031,3.40234 -0.640664,-0.4125 -1.281328,-0.825 -1.941406,-1.25 C -20.277995,176.18399 -26.602723,170.59231 -30,161 c 2.794304,1.10818 5.574952,2.24085 8.347656,3.40234 13.19954,5.49596 25.5557708,7.99339 39.796875,9.16797 C 22.127436,173.90138 26.051273,174.38587 30,175 c 0,0.66 0,1.32 0,2 -1.597265,1.27184 -3.255869,2.467 -4.9375,3.625 C 16.737816,186.55286 9.8270431,192.57351 4,201 -0.98570566,199.95952 -5.8490698,198.77942 -10.711914,197.24878 -40.829926,188.03082 -78.164653,185.72381 -109,193 c -1.41787,0.30516 -2.83584,0.60984 -4.25391,0.91406 -7.47598,1.67744 -14.49001,3.96738 -21.48828,7.13281 C -137,202 -137,202 -139,202 c -1.41016,-1.43359 -1.41016,-1.43359 -3.0625,-3.4375 -5.142,-6.02929 -10.43728,-11.99227 -17,-16.5 -0.96938,-0.68063 -1.93875,-1.36125 -2.9375,-2.0625 0,-0.66 0,-1.32 0,-2 3.09099,-1.03033 5.24907,-1.12472 8.48828,-1.14063 16.96823,-0.24277 29.21183,-1.56744 43.40234,-11.60156 0.6961,-0.41508 1.39219,-0.83015 2.10938,-1.25781 0.66,0.33 1.32,0.66 2,1 -4.39986,8.28308 -9.30418,14.9806 -18,19 7.62892,-0.54492 13.78049,-2.33024 19.1875,-8 9.979557,-12.79987 10.923739,-30.85052 12.625,-46.375 C -87.486134,89.420178 -73.607675,60.392833 -46,31 c 0.620039,-0.685781 1.240078,-1.371563 1.878906,-2.078125 C -32.335527,16.371697 -16.525797,5.0906475 0,0 Z"
         fill="#fcfcfb"
         transform="translate(583,190)"
         id="path4" />
      <path
         d="m 0,0 c 7.9294212,3.2202453 12.138477,13.488032 15.652344,20.796875 6.072748,14.433778 7.692236,29.192434 7.608398,44.665283 -0.01068,2.336449 -6.8e-5,4.67212 0.0127,7.008545 C 23.298689,97.671254 23.298689,97.671254 19,105 18.96036,104.14173 18.92072,103.28345 18.879883,102.39917 17.237349,68.307528 13.131788,35.895587 0.6550293,3.9133301 0,2 0,2 0,0 Z"
         fill="#0f0e0d"
         transform="translate(639,439)"
         id="path5" />
      <path
         d="M 0,0 C 7.6259665,0.89717253 13.269239,6.3013588 18,12 23.962692,20.581515 28.440454,28.208886 28,39 20.727092,38.813515 15.938471,33.892377 11.007813,29.039062 3.2702003,20.637278 -0.4019888,11.456681 0,0 Z"
         fill="#f5f5f4"
         transform="translate(588,189)"
         id="path6" />
      <path
         d="M 0,0 C 0,0.66 0,1.32 0,2 0.66,2.33 1.32,2.66 2,3 -3.7787485,6.2571128 -8.3782207,7.6934361 -15,8 -12.737624,5.5273388 -10.425467,3.936134 -7.5,2.3125 -6.3398437,1.6570117 -6.3398437,1.6570117 -5.15625,0.98828125 -3,0 -3,0 0,0 Z"
         fill="#111112"
         transform="translate(473,367)"
         id="path7" />
      <path
         d="M 0,0 C 4.1371889,1.7904641 5.6632014,4.1609737 8,8 7.34,8 6.68,8 6,8 5.67,9.65 5.34,11.3 5,13 3.0961015,10.144152 2.3053782,8.0688238 1.375,4.8125 0.98441406,3.460918 0.98441406,3.460918 0.5859375,2.0820313 0.39257812,1.3949609 0.19921875,0.70789063 0,0 Z"
         fill="#1b1c1c"
         transform="translate(639,439)"
         id="path8" />
      <path
         d="M 0,0 C 0.33,0 0.66,0 1,0 1.054471,1.4162322 1.093005,2.8330819 1.125,4.25 1.148203,5.0389062 1.171406,5.8278125 1.195312,6.640625 0.9828378,9.2073194 0.28654105,10.791607 -1,13 -1.33,12.34 -1.66,11.68 -2,11 -2.99,11.495 -2.99,11.495 -4,12 -3.523098,10.374334 -3.0434033,8.7494869 -2.5625,7.125 -2.2956641,6.2200781 -2.0288281,5.3151562 -1.7539062,4.3828125 -1,2 -1,2 0,0 Z"
         fill="#353738"
         transform="translate(649,668)"
         id="path9" />
      <path
         d="M 0,0 C 0.66,0.33 1.32,0.66 2,1 -0.0063228,4.0094842 -1.5545569,5.7839613 -5,7 -7.75,7.125 -7.75,7.125 -10,7 -6.7647826,4.5113712 -3.4073971,2.2457844 0,0 Z"
         fill="#dedbdc"
         transform="translate(475,354)"
         id="path10" />
      <path
         d="m 0,0 c 0.33,0.99 0.66,1.98 1,3 -1.32,0.33 -2.64,0.66 -4,1 0,0.99 0,1.98 0,3 -1.98,0 -3.96,0 -6,0 2.6234008,-2.9148898 5.7181639,-4.885039 9,-7 z"
         fill="#323331"
         transform="translate(467,368)"
         id="path11" />
      <path
         d="M 0,0 C 4.75,1.875 4.75,1.875 7,3 7,3.66 7,4.32 7,5 6.34,5 5.68,5 5,5 4.67,5.99 4.34,6.98 4,8 2.68,5.36 1.36,2.72 0,0 Z"
         fill="#dad6d3"
         transform="translate(553,351)"
         id="path12" />
      <path
         d="M 0,0 C 0.66,0.33 1.32,0.66 2,1 1.34,2.98 0.68,4.96 0,7 -0.99,6.34 -1.98,5.68 -3,5 -1.125,1.125 -1.125,1.125 0,0 Z"
         fill="#272624"
         transform="translate(408,364)"
         id="path13" />
      <path
         d="M 0,0 C 0.99,0.495 0.99,0.495 2,1 3.1142183,4.6465327 2.9429659,7.3329104 2,11 1.67,11 1.34,11 1,11 0.67,7.37 0.34,3.74 0,0 Z"
         fill="#494b4d"
         transform="translate(392,639)"
         id="path14" />
    </g>
    <text
       xml:space="preserve"
       style="font-size:566.667px;line-height:0px;font-family:Arial;-inkscape-font-specification:Arial;letter-spacing:0px;writing-mode:lr-tb;direction:ltr;fill:#ffffff;fill-opacity:1;stroke-width:5;paint-order:markers fill stroke"
       x="902.48553"
       y="760.8158"
       id="text2"><tspan
         id="tspan2"
         x="902.48553"
         y="760.8158"
         style="font-style:normal;font-variant:normal;font-weight:normal;font-stretch:normal;font-size:566.667px;font-family:'Source Han Sans CN';-inkscape-font-specification:'Source Han Sans CN';fill:#ffffff;fill-opacity:1">青椒模拟器</tspan></text>
  </g>
</svg>
