<svg xmlns="http://www.w3.org/2000/svg" xmlns:xlink="http://www.w3.org/1999/xlink" viewBox="0 0 432 127"><defs><style>.cls-1,.cls-10,.cls-2,.cls-8{fill:#fff;}.cls-2,.cls-3{stroke:#231815;}.cls-10,.cls-2,.cls-3,.cls-6,.cls-7,.cls-8,.cls-9{stroke-miterlimit:10;}.cls-3,.cls-6,.cls-7,.cls-9{fill:none;}.cls-3{stroke-width:1.25px;}.cls-4,.cls-5{fill:#231815;}.cls-5{font-size:18px;font-family:MicrosoftYaHei-Bold, Microsoft YaHei;font-weight:700;}.cls-10,.cls-6,.cls-7,.cls-8,.cls-9{stroke:#727171;}.cls-6,.cls-7,.cls-8{stroke-width:0.5px;}.cls-7{stroke-dasharray:1.02 1.02;}.cls-9{stroke-dasharray:2.5;}.cls-10{stroke-width:0.75px;}</style></defs><title>code-to-grade</title><g id="图层_2" data-name="图层 2"><g id="图层_1-2" data-name="图层 1"><rect class="cls-1" y="0.5" width="432" height="126"/><circle class="cls-2" cx="198" cy="27.5" r="18"/><line class="cls-3" x1="198" y1="45.5" x2="198" y2="70.43"/><polygon class="cls-4" points="194.37 67.95 198 81.5 201.63 67.95 194.37 67.95"/><text class="cls-5" transform="translate(190.94 34.5)">C</text><circle class="cls-2" cx="198" cy="99.5" r="18"/><text class="cls-5" transform="translate(191.11 107)">G</text><line class="cls-6" x1="217.88" y1="27.5" x2="218.38" y2="27.5"/><line class="cls-7" x1="219.39" y1="27.5" x2="255.49" y2="27.5"/><line class="cls-6" x1="256" y1="27.5" x2="256.5" y2="27.5"/><circle class="cls-8" cx="216" cy="27.5" r="1.88"/><image width="110" height="53" transform="translate(225 19.5) scale(0.32)" xlink:href="p_c.png"/><rect class="cls-9" x="171" y="0.5" width="117" height="126" rx="17.67" ry="17.67"/><line class="cls-6" x1="132.37" y1="59" x2="132.87" y2="59"/><line class="cls-7" x1="133.89" y1="59" x2="169.99" y2="59"/><line class="cls-6" x1="170.5" y1="59" x2="171" y2="59"/><image width="171" height="53" transform="translate(92.5 50.5) scale(0.32)" xlink:href="p_c_g.png"/><circle class="cls-10" cx="171" cy="59" r="3.13"/><line class="cls-6" x1="217.88" y1="99.5" x2="218.38" y2="99.5"/><line class="cls-7" x1="219.39" y1="99.5" x2="255.49" y2="99.5"/><line class="cls-6" x1="256" y1="99.5" x2="256.5" y2="99.5"/><circle class="cls-8" cx="216" cy="99.5" r="1.88"/><image width="162" height="52" transform="translate(225 91) scale(0.33)" xlink:href="p_g_c.png"/></g></g></svg>