<svg xmlns="http://www.w3.org/2000/svg" xmlns:xlink="http://www.w3.org/1999/xlink" viewBox="0 0 612 181"><defs><style>.cls-1,.cls-2,.cls-8{fill:#fff;}.cls-2,.cls-4{stroke:#231815;}.cls-10,.cls-11,.cls-2,.cls-4,.cls-6,.cls-7,.cls-8,.cls-9{stroke-miterlimit:10;}.cls-3{font-size:14px;font-family:MicrosoftYaHei-Bold, Microsoft YaHei;font-weight:700;}.cls-3,.cls-5{fill:#231815;}.cls-10,.cls-11,.cls-4,.cls-6,.cls-7,.cls-9{fill:none;}.cls-4{stroke-width:1.25px;}.cls-10,.cls-6,.cls-7,.cls-8{stroke:#727171;}.cls-10,.cls-11,.cls-6,.cls-7,.cls-8{stroke-width:0.5px;}.cls-7{stroke-dasharray:2.06 2.06;}.cls-9{stroke:#fff;stroke-width:2px;}.cls-10{stroke-dasharray:1.99 1.99;}.cls-11{stroke:#898989;stroke-dasharray:1.02 1.02;}</style></defs><title>factor-of-model</title><g id="图层_2" data-name="图层 2"><g id="图层_1-2" data-name="图层 1"><rect class="cls-1" y="0.5" width="612" height="180.35"/><ellipse class="cls-2" cx="378.71" cy="90.5" rx="36" ry="18"/><text class="cls-3" transform="translate(350.71 95)">笔试成绩</text><ellipse class="cls-2" cx="270.71" cy="90.5" rx="36" ry="18"/><text class="cls-3" transform="translate(242.71 95)">博客质量</text><ellipse class="cls-2" cx="324.71" cy="18.5" rx="36" ry="18"/><text class="cls-3" transform="translate(296.71 23)">代码能力</text><ellipse class="cls-2" cx="216.71" cy="18.5" rx="36" ry="18"/><text class="cls-3" transform="translate(188.71 23)">表达能力</text><ellipse class="cls-2" cx="270.71" cy="162.5" rx="36" ry="18"/><text class="cls-3" transform="translate(242.71 167.5)">点赞数量</text><line class="cls-4" x1="270.71" y1="108.5" x2="270.71" y2="133.43"/><polygon class="cls-5" points="267.08 130.95 270.71 144.5 274.34 130.95 267.08 130.95"/><line class="cls-4" x1="337.31" y1="35.36" x2="359.41" y2="64.79"/><polygon class="cls-5" points="355.01 64.99 366.06 73.65 360.82 60.63 355.01 64.99"/><line class="cls-4" x1="228.55" y1="35.5" x2="250.66" y2="64.94"/><polygon class="cls-5" points="246.27 65.14 257.31 73.79 252.07 60.78 246.27 65.14"/><line class="cls-4" x1="312.07" y1="35.36" x2="290" y2="64.78"/><polygon class="cls-5" points="288.58 60.62 283.35 73.64 294.39 64.98 288.58 60.62"/><image width="195" height="46" transform="translate(144.25 82.45) scale(0.37)" xlink:href="p_q_c_e.png"/><image width="140" height="46" transform="translate(164.95 153.5) scale(0.37)" xlink:href="p_l_q.png"/><image width="110" height="53" transform="translate(379.41 10.49) scale(0.32)" xlink:href="p_c.png"/><image width="97" height="46" transform="translate(126.71 10.49) scale(0.37 0.37)" xlink:href="p_e.png"/><line class="cls-6" x1="239.66" y1="50.29" x2="238.82" y2="50.83"/><line class="cls-7" x1="237.08" y1="51.95" x2="192.91" y2="80.49"/><line class="cls-6" x1="192.04" y1="81.05" x2="191.2" y2="81.6"/><circle class="cls-8" cx="239.66" cy="50.29" r="1.88"/><line class="cls-9" x1="241.53" y1="70.96" x2="260.49" y2="64.36"/><line class="cls-6" x1="300.87" y1="50.29" x2="299.93" y2="50.62"/><line class="cls-10" x1="298.05" y1="51.27" x2="212.45" y2="81.1"/><line class="cls-6" x1="211.51" y1="81.42" x2="210.56" y2="81.75"/><circle class="cls-8" cx="300.87" cy="50.29" r="1.88"/><image width="162" height="52" transform="translate(432.71 82.49) scale(0.33)" xlink:href="p_g_c.png"/><rect class="cls-11" x="179.71" y="81.13" width="13.13" height="16.25" rx="3.33" ry="3.33"/><rect class="cls-11" x="198.84" y="81.13" width="13.13" height="16.25" rx="3.33" ry="3.33"/><image width="82" height="63" transform="translate(191.46 54.65) scale(0.18)" xlink:href="pagq.png"/></g></g></svg>