<svg xmlns="http://www.w3.org/2000/svg" xmlns:xlink="http://www.w3.org/1999/xlink" viewBox="0 0 612 158.14"><defs><style>.cls-1{fill:#fff;}.cls-2,.cls-4{fill:none;stroke:#231815;stroke-miterlimit:10;}.cls-2{stroke-width:2px;}.cls-3{font-size:14px;fill:#595757;font-family:MicrosoftYaHei-Bold, Microsoft YaHei;font-weight:700;}.cls-4{stroke-width:1.25px;}.cls-5{fill:#231815;}</style></defs><title>markov-v</title><g id="图层_2" data-name="图层 2"><g id="图层_1-2" data-name="图层 1"><rect class="cls-1" y="1.6" width="612" height="156.53"/><rect class="cls-2" x="242.91" y="1" width="36" height="36" rx="18" ry="18"/><text class="cls-3" transform="translate(255.65 24.5)">A</text><rect class="cls-2" x="332.91" y="1" width="36" height="36" rx="18" ry="18"/><text class="cls-3" transform="translate(346.13 24.5)">B</text><rect class="cls-2" x="287.83" y="91" width="36" height="36" rx="18" ry="18"/><text class="cls-3" transform="translate(301.11 114.5)">C</text><line class="cls-4" x1="343.01" y1="35.17" x2="314.86" y2="93.43"/><line class="cls-4" x1="268.96" y1="35.1" x2="297.85" y2="92.87"/><rect class="cls-2" x="422.91" y="1.43" width="36" height="36" rx="18" ry="18"/><text class="cls-3" transform="translate(435.65 24.93)">A</text><rect class="cls-2" x="512.91" y="1.43" width="36" height="36" rx="18" ry="18"/><text class="cls-3" transform="translate(526.13 24.93)">B</text><rect class="cls-2" x="467.83" y="91.43" width="36" height="36" rx="18" ry="18"/><text class="cls-3" transform="translate(481.11 114.93)">C</text><line class="cls-4" x1="458.91" y1="19.43" x2="512.91" y2="19.43"/><line class="cls-4" x1="523.01" y1="35.61" x2="494.86" y2="93.86"/><line class="cls-4" x1="448.96" y1="35.53" x2="477.85" y2="93.3"/><rect class="cls-2" x="62.91" y="1.43" width="36" height="36" rx="18" ry="18"/><text class="cls-3" transform="translate(75.65 24.93)">A</text><rect class="cls-2" x="152.91" y="1.43" width="36" height="36" rx="18" ry="18"/><text class="cls-3" transform="translate(166.13 24.93)">B</text><rect class="cls-2" x="107.83" y="91.43" width="36" height="36" rx="18" ry="18"/><text class="cls-3" transform="translate(121.11 114.93)">C</text><line class="cls-4" x1="163.01" y1="35.61" x2="139.68" y2="83.89"/><polygon class="cls-5" points="137.48 80.08 134.86 93.86 144.02 83.24 137.48 80.08"/><line class="cls-4" x1="88.96" y1="35.53" x2="112.89" y2="83.39"/><polygon class="cls-5" points="108.54 82.8 117.85 93.3 115.03 79.56 108.54 82.8"/><image width="113" height="46" transform="translate(101.45 138.29) scale(0.43)" xlink:href="v-stuct.png"/><image width="334" height="46" transform="translate(413.88 138.29) scale(0.43)" xlink:href="i_b_d.png"/><image width="340" height="46" transform="translate(232.67 138.29) scale(0.43)" xlink:href="i_b_d_c_g.png"/></g></g></svg>