<svg xmlns="http://www.w3.org/2000/svg" viewBox="0 0 618.33 181"><defs><style>.cls-1,.cls-2{fill:#fff;}.cls-2,.cls-4{stroke:#231815;stroke-miterlimit:10;}.cls-3{font-size:14px;font-family:MicrosoftYaHei-Bold, Microsoft YaHei;font-weight:700;}.cls-3,.cls-5{fill:#231815;}.cls-4{fill:none;stroke-width:1.25px;}</style></defs><title>recruit-model</title><g id="图层_2" data-name="图层 2"><g id="图层_1-2" data-name="图层 1"><rect class="cls-1" y="0.33" width="618.33" height="180.35"/><ellipse class="cls-2" cx="417.17" cy="90.5" rx="36" ry="18"/><text class="cls-3" transform="translate(389.17 95)">笔试成绩</text><ellipse class="cls-2" cx="309.17" cy="90.5" rx="36" ry="18"/><text class="cls-3" transform="translate(281.17 95)">博客质量</text><ellipse class="cls-2" cx="363.17" cy="18.5" rx="36" ry="18"/><text class="cls-3" transform="translate(335.17 23)">代码能力</text><ellipse class="cls-2" cx="255.17" cy="18.5" rx="36" ry="18"/><text class="cls-3" transform="translate(227.17 23)">表达能力</text><ellipse class="cls-2" cx="309.17" cy="162.5" rx="36" ry="18"/><text class="cls-3" transform="translate(281.17 167.5)">点赞数量</text><line class="cls-4" x1="309.17" y1="108.5" x2="309.17" y2="133.43"/><polygon class="cls-5" points="305.54 130.95 309.17 144.5 312.8 130.95 305.54 130.95"/><line class="cls-4" x1="375.77" y1="35.36" x2="397.86" y2="64.79"/><polygon class="cls-5" points="393.47 64.99 404.51 73.65 399.28 60.63 393.47 64.99"/><line class="cls-4" x1="267.01" y1="35.5" x2="289.11" y2="64.94"/><polygon class="cls-5" points="284.72 65.14 295.76 73.79 290.53 60.78 284.72 65.14"/><line class="cls-4" x1="350.52" y1="35.36" x2="328.45" y2="64.78"/><polygon class="cls-5" points="327.03 60.62 321.81 73.64 332.85 64.98 327.03 60.62"/></g></g></svg>