<svg xmlns="http://www.w3.org/2000/svg" xmlns:xlink="http://www.w3.org/1999/xlink" viewBox="0 0 342 55.31"><defs><style>.cls-1{fill:#fff;}.cls-2,.cls-3{fill:none;stroke:#000;stroke-miterlimit:10;}.cls-2{stroke-width:0.5px;}.cls-3{stroke-width:1.25px;}</style></defs><title>crf-model</title><g id="图层_2" data-name="图层 2"><g id="图层_1-2" data-name="图层 1"><rect class="cls-1" y="0.63" width="342" height="54.06"/><path class="cls-2" d="M170.48,2.36"/><circle class="cls-3" cx="103.29" cy="8.07" r="7.25"/><circle class="cls-3" cx="130.23" cy="8.07" r="7.25"/><circle class="cls-3" cx="238.29" cy="7.88" r="7.25"/><circle class="cls-3" cx="157.09" cy="8.07" r="7.25"/><circle class="cls-3" cx="211.08" cy="8.07" r="7.25"/><line class="cls-2" x1="218.33" y1="8.29" x2="231.04" y2="8.29"/><line class="cls-2" x1="109.54" y1="11.73" x2="163.79" y2="43.51"/><line class="cls-2" x1="135.42" y1="13.14" x2="165.3" y2="42.37"/><line class="cls-2" x1="159.43" y1="14.93" x2="168.15" y2="40.57"/><line class="cls-2" x1="205.88" y1="13.11" x2="175.69" y2="42.39"/><line class="cls-2" x1="232.06" y1="11.58" x2="176.75" y2="43.79"/><circle class="cls-3" cx="170.48" cy="47.43" r="7.25"/><circle class="cls-3" cx="76.35" cy="8.07" r="7.25"/><circle class="cls-3" cx="265.49" cy="7.93" r="7.25"/><line class="cls-2" x1="191.13" y1="8.37" x2="203.83" y2="8.37"/><line class="cls-2" x1="245.54" y1="8.29" x2="258.24" y2="8.29"/><line class="cls-2" x1="164.65" y1="8.29" x2="177.35" y2="8.29"/><line class="cls-2" x1="137.36" y1="8.37" x2="150.07" y2="8.37"/><line class="cls-2" x1="110.6" y1="8.37" x2="123.3" y2="8.37"/><line class="cls-2" x1="83.6" y1="8.29" x2="96.3" y2="8.29"/><image width="44" height="40" transform="translate(235.54 5.79) scale(0.12)" xlink:href="cy_n.png"/><image width="82" height="40" transform="translate(206.16 5.38) scale(0.12)" xlink:href="cy_n_1.png"/><image width="46" height="8" transform="translate(180.96 7.8) scale(0.14)" xlink:href="dots.png"/><image width="29" height="34" transform="translate(168.41 45.01) scale(0.14)" xlink:href="S.png"/><image width="95" height="40" transform="translate(70.41 5.43) scale(0.12)" xlink:href="start.png"/><image width="86" height="42" transform="translate(260.37 5.79) scale(0.12)" xlink:href="stop.png"/><image width="39" height="40" transform="translate(101.14 5.57) scale(0.12)" xlink:href="cy_1.png"/><image width="41" height="40" transform="translate(127.89 5.79) scale(0.12)" xlink:href="cy_2.png"/><image width="41" height="41" transform="translate(154.86 5.87) scale(0.12)" xlink:href="cy_3.png"/><line class="cls-2" x1="82.9" y1="11.17" x2="163.78" y2="44.66"/><line class="cls-2" x1="177.19" y1="44.68" x2="258.96" y2="11.06"/></g></g></svg>