<svg xmlns="http://www.w3.org/2000/svg" xmlns:xlink="http://www.w3.org/1999/xlink" viewBox="0 0 342 61.98"><defs><style>.cls-1{fill:#fff;}.cls-2,.cls-3,.cls-4{fill:none;stroke-miterlimit:10;}.cls-2,.cls-3{stroke:#000;}.cls-2{stroke-width:1.25px;}.cls-3{stroke-width:0.5px;}.cls-4{stroke:#fff;stroke-width:1.15px;}</style></defs><title>markov-chains</title><g id="图层_2" data-name="图层 2"><g id="图层_1-2" data-name="图层 1"><rect class="cls-1" y="0.57" width="342" height="61"/><circle class="cls-2" cx="155.31" cy="8.06" r="7.25"/><circle class="cls-2" cx="155.25" cy="31.11" r="7.25"/><circle class="cls-2" cx="186.25" cy="8.06" r="7.25"/><circle class="cls-2" cx="186.25" cy="31.11" r="7.25"/><circle class="cls-2" cx="155.25" cy="54.11" r="7.25"/><path class="cls-3" d="M161.21,3.86s6.85-5.6,15.28-2.18"/><polygon points="174.89 2.56 180.35 3.86 176.27 0 174.89 2.56"/><path class="cls-3" d="M171.5,2.36"/><path class="cls-3" d="M180.35,12.29s-7.45,4.45-15.16,2"/><polygon points="166.74 13.29 161.21 12.29 165.5 15.91 166.74 13.29"/><line class="cls-3" x1="180.35" y1="12.29" x2="164.59" y2="24.1"/><polygon points="164.52 22.35 161.05 26.76 166.26 24.67 164.52 22.35"/><line class="cls-3" x1="155.25" y1="38.36" x2="155.25" y2="42.43"/><polygon points="153.8 41.44 155.25 46.86 156.7 41.44 153.8 41.44"/><path class="cls-3" d="M184.5,38.07C182.74,46,177.23,52.4,167,53.86"/><polygon points="167.83 52.29 162.54 54.17 168.06 55.19 167.83 52.29"/><path class="cls-3" d="M191.29,25.89A7,7,0,1,1,196,38.11l-.6,0"/><polygon points="196.86 36.94 191.29 36.32 195.81 39.65 196.86 36.94"/><line class="cls-4" x1="161.71" y1="12.67" x2="172.12" y2="20.49"/><line class="cls-3" x1="161.21" y1="12.29" x2="176.91" y2="24.09"/><polygon points="175.25 24.66 180.46 26.75 177 22.34 175.25 24.66"/><image width="36" height="31" transform="translate(152.39 4.87) scale(0.19)" xlink:href="y_1.png"/><image width="37" height="31" transform="translate(182.67 4.87) scale(0.19)" xlink:href="y_2.png"/><image width="37" height="31" transform="translate(151.67 27.96) scale(0.19)" xlink:href="y_3.png"/><image width="38" height="31" transform="translate(182.38 27.96) scale(0.19)" xlink:href="y_4.png"/><image width="37" height="31" transform="translate(151.73 51.17) scale(0.19)" xlink:href="y_5.png"/><image width="216" height="47" transform="translate(177.68 51.42) scale(0.12)" xlink:href="T_y4_to_y5.png"/><path class="cls-3" d="M158,47.57a23.33,23.33,0,0,1,16.66-16.12"/><polygon points="174 33.12 179 30.57 173.4 30.28 174 33.12"/></g></g></svg>