<svg xmlns="http://www.w3.org/2000/svg" xmlns:xlink="http://www.w3.org/1999/xlink" viewBox="0 0 342 142.6"><defs><style>.cls-1{fill:#fff;}.cls-10,.cls-11,.cls-12,.cls-13,.cls-14,.cls-2,.cls-3,.cls-4,.cls-5,.cls-6,.cls-7,.cls-8,.cls-9{fill:none;stroke-miterlimit:10;}.cls-2,.cls-3{stroke:#000;}.cls-2{stroke-width:0.5px;}.cls-3{stroke-width:1.25px;}.cls-10,.cls-11,.cls-12,.cls-13,.cls-14,.cls-4,.cls-5,.cls-6,.cls-7,.cls-8,.cls-9{stroke:gray;stroke-width:0.75px;}.cls-5{stroke-dasharray:2.14 2.14;}.cls-6{stroke-dasharray:1.98 1.98;}.cls-7{stroke-dasharray:1.91 1.91;}.cls-8{stroke-dasharray:2.03 2.03;}.cls-9{stroke-dasharray:2.21 2.21;}.cls-10{stroke-dasharray:1.97 1.97;}.cls-11{stroke-dasharray:1.99 1.99;}.cls-12{stroke-dasharray:2.09 2.09;}.cls-13{stroke-dasharray:2.06 2.06;}.cls-14{stroke-dasharray:1.96 1.96;}</style><image id="image" width="46" height="8" xlink:href="dots.png"/><image id="image-2" width="29" height="34" xlink:href="S.png"/><image id="image-3" width="95" height="40" xlink:href="start.png"/><image id="image-4" width="86" height="42" xlink:href="stop.png"/><image id="image-5" width="36" height="46" xlink:href="cy_i.png"/></defs><title>meanning-of-alpha-beta</title><g id="图层_2" data-name="图层 2"><g id="图层_1-2" data-name="图层 1"><rect class="cls-1" y="0.37" width="342" height="141.85"/><path class="cls-2" d="M170.48,6.31"/><circle class="cls-3" cx="103.29" cy="12.02" r="7.25"/><circle class="cls-3" cx="130.23" cy="12.02" r="7.25"/><circle class="cls-3" cx="238.29" cy="11.83" r="7.25"/><circle class="cls-3" cx="157.09" cy="12.02" r="7.25"/><circle class="cls-3" cx="211.08" cy="12.02" r="7.25"/><line class="cls-2" x1="218.33" y1="12.24" x2="231.04" y2="12.24"/><line class="cls-2" x1="109.54" y1="15.69" x2="163.79" y2="47.47"/><line class="cls-2" x1="135.42" y1="17.09" x2="165.3" y2="46.32"/><line class="cls-2" x1="159.43" y1="18.88" x2="168.15" y2="44.53"/><line class="cls-2" x1="205.88" y1="17.07" x2="175.69" y2="46.34"/><line class="cls-2" x1="232.06" y1="15.53" x2="176.75" y2="47.74"/><circle class="cls-3" cx="170.48" cy="51.39" r="7.25"/><line class="cls-2" x1="191.13" y1="12.33" x2="203.83" y2="12.33"/><line class="cls-2" x1="164.65" y1="12.24" x2="177.35" y2="12.24"/><line class="cls-2" x1="137.36" y1="12.33" x2="150.07" y2="12.33"/><line class="cls-2" x1="110.6" y1="12.33" x2="123.3" y2="12.33"/><path class="cls-2" d="M170.18,96.93"/><circle class="cls-3" cx="103.2" cy="91.36" r="7.25"/><circle class="cls-3" cx="130.14" cy="91.36" r="7.25"/><circle class="cls-3" cx="238.19" cy="91.17" r="7.25"/><circle class="cls-3" cx="157" cy="91.36" r="7.25"/><circle class="cls-3" cx="210.99" cy="91.36" r="7.25"/><line class="cls-2" x1="218.24" y1="91.58" x2="230.94" y2="91.58"/><line class="cls-2" x1="109.45" y1="95.02" x2="163.7" y2="126.8"/><line class="cls-2" x1="135.32" y1="96.43" x2="165.21" y2="125.66"/><line class="cls-2" x1="159.33" y1="98.22" x2="168.06" y2="123.87"/><line class="cls-2" x1="205.79" y1="96.4" x2="175.59" y2="125.68"/><line class="cls-2" x1="231.97" y1="94.87" x2="176.65" y2="127.08"/><circle class="cls-3" cx="170.39" cy="130.73" r="7.25"/><line class="cls-2" x1="191.04" y1="91.66" x2="203.74" y2="91.66"/><line class="cls-2" x1="164.56" y1="91.58" x2="177.26" y2="91.58"/><line class="cls-2" x1="137.27" y1="91.66" x2="149.97" y2="91.66"/><line class="cls-2" x1="110.51" y1="91.66" x2="123.21" y2="91.66"/><path class="cls-4" d="M159.41,134.09q.15.48.34.94"/><path class="cls-5" d="M160.74,136.93a11.61,11.61,0,0,0,14.15,4.43"/><path class="cls-4" d="M175.87,140.91q.44-.23.86-.5l-.81.48.86-.5"/><line class="cls-6" x1="178.48" y1="139.38" x2="242.42" y2="102"/><path class="cls-4" d="M243.28,101.5l.86-.5-.63.37q.44-.24.86-.51"/><path class="cls-7" d="M245.87,99.67a11.6,11.6,0,0,0-5.93-19.93"/><path class="cls-4" d="M239,79.61q-.49,0-1,0h-1"/><line class="cls-8" x1="234.96" y1="79.58" x2="159.01" y2="79.76"/><path class="cls-4" d="M158,79.77h-1q-.51,0-1,0"/><path class="cls-9" d="M153.83,80.21A11.61,11.61,0,0,0,145.52,93"/><path class="cls-4" d="M145.72,94q.12.49.27,1l-.22-.63.32.95"/><line class="cls-10" x1="146.73" y1="97.17" x2="159.2" y2="133.45"/><line class="cls-4" x1="159.52" y1="134.38" x2="159.84" y2="135.33"/><path class="cls-4" d="M97.87,22.27q-.45-.23-.87-.5"/><path class="cls-11" d="M95.42,20.57A11.59,11.59,0,0,1,103.2.38l54,.27A11.59,11.59,0,0,1,167.46,6.9"/><path class="cls-4" d="M167.88,7.8q.19.46.34.94l-.1-.31.32.95"/><line class="cls-12" x1="169.12" y1="11.36" x2="180.91" y2="45.89"/><path class="cls-4" d="M181.24,46.88l.32.95-.22-.65q.17.47.31,1"/><path class="cls-13" d="M182,50.15q.05.54.05,1.1A11.6,11.6,0,0,1,166.21,62"/><path class="cls-4" d="M165.27,61.6q-.45-.23-.87-.49l.36.21-.86-.5"/><line class="cls-14" x1="162.19" y1="59.82" x2="98.58" y2="22.68"/><line class="cls-4" x1="97.73" y1="22.19" x2="96.87" y2="21.68"/><use transform="translate(181.36 11.72) scale(0.13)" xlink:href="#image"/><use transform="translate(168.5 48.9) scale(0.13)" xlink:href="#image-2"/><use transform="translate(97.35 9.83) scale(0.12)" xlink:href="#image-3"/><use transform="translate(233.17 9.74) scale(0.12)" xlink:href="#image-4"/><use transform="translate(154.85 9.33) scale(0.13)" xlink:href="#image-5"/><use transform="translate(181.26 91.14) scale(0.13)" xlink:href="#image"/><use transform="translate(168.15 128.71) scale(0.13)" xlink:href="#image-2"/><use transform="translate(97.26 89.16) scale(0.12)" xlink:href="#image-3"/><use transform="translate(233.17 89.08) scale(0.12)" xlink:href="#image-4"/><use transform="translate(154.76 88.66) scale(0.13)" xlink:href="#image-5"/><image width="39" height="40" transform="translate(131.7 52.75) scale(0.25)" xlink:href="alpha.png"/><image width="35" height="42" transform="translate(200.24 132.23) scale(0.24)" xlink:href="bate.png"/></g></g></svg>