<svg xmlns="http://www.w3.org/2000/svg" xmlns:xlink="http://www.w3.org/1999/xlink" viewBox="0 0 342 15.94"><defs><style>.cls-1{fill:#fff;}.cls-2,.cls-3{fill:none;stroke:#000;stroke-miterlimit:10;}.cls-2{stroke-width:0.5px;}.cls-3{stroke-width:1.25px;}</style><image id="image" width="38" height="31" xlink:href="y_4.png"/><image id="image-2" width="36" height="31" xlink:href="y_1.png"/></defs><title>state-sequence</title><g id="图层_2" data-name="图层 2"><g id="图层_1-2" data-name="图层 1"><rect class="cls-1" y="0.67" width="342" height="14.65"/><path class="cls-2" d="M170.7,2.36"/><circle class="cls-3" cx="103.5" cy="8.07" r="7.25"/><circle class="cls-3" cx="130.45" cy="8.07" r="7.25"/><circle class="cls-3" cx="184.54" cy="8.07" r="7.25"/><circle class="cls-3" cx="238.5" cy="7.88" r="7.25"/><circle class="cls-3" cx="157.31" cy="8.07" r="7.25"/><circle class="cls-3" cx="211.29" cy="8.07" r="7.25"/><line class="cls-2" x1="110.75" y1="8.07" x2="118.77" y2="8.07"/><polygon points="117.78 9.52 123.19 8.07 117.78 6.62 117.78 9.52"/><line class="cls-2" x1="137.7" y1="8.07" x2="145.63" y2="8.07"/><polygon points="144.63 9.52 150.06 8.07 144.63 6.62 144.63 9.52"/><line class="cls-2" x1="164.56" y1="8.07" x2="172.86" y2="8.07"/><polygon points="171.87 9.52 177.29 8.07 171.87 6.62 171.87 9.52"/><line class="cls-2" x1="191.79" y1="8.07" x2="199.62" y2="8.07"/><polygon points="198.63 9.52 204.04 8.07 198.63 6.62 198.63 9.52"/><line class="cls-2" x1="218.54" y1="8.07" x2="226.82" y2="7.94"/><polygon points="225.85 9.41 231.25 7.88 225.81 6.5 225.85 9.41"/><image width="37" height="31" transform="translate(234.92 4.76) scale(0.19)" xlink:href="y_5.png"/><use transform="translate(100.02 4.88) scale(0.19)" xlink:href="#image-2"/><image width="37" height="31" transform="translate(126.86 5.18) scale(0.19)" xlink:href="y_2.png"/><use transform="translate(181.13 4.88) scale(0.19)" xlink:href="#image"/><use transform="translate(207.62 4.88) scale(0.19)" xlink:href="#image"/><use transform="translate(153.82 4.88) scale(0.19)" xlink:href="#image-2"/></g></g></svg>