<svg xmlns="http://www.w3.org/2000/svg" xmlns:xlink="http://www.w3.org/1999/xlink" viewBox="0 0 342 51.97"><defs><style>.cls-1{fill:#fff;}.cls-10,.cls-2,.cls-3,.cls-5,.cls-7,.cls-8{fill:none;stroke-miterlimit:10;}.cls-2,.cls-3{stroke:#000;}.cls-2{stroke-width:0.5px;}.cls-3,.cls-8{stroke-width:1.25px;}.cls-4{fill:url(#未命名的渐变_6);}.cls-5{stroke:gray;stroke-width:1.5px;}.cls-6{opacity:0.7;}.cls-7{stroke:#8cc63f;}.cls-10,.cls-7{stroke-width:0.75px;}.cls-8{stroke:#fff;}.cls-9{fill:#8cc63f;}.cls-10{stroke:#b12527;}.cls-11{fill:#b12527;}</style><linearGradient id="未命名的渐变_6" x1="178.33" y1="44.28" x2="191.03" y2="44.28" gradientUnits="userSpaceOnUse"><stop offset="0" stop-color="#fff"/><stop offset="1"/></linearGradient><image id="image" width="46" height="8" xlink:href="dots.png"/></defs><title>condition-block</title><g id="图层_2" data-name="图层 2"><g id="图层_1-2" data-name="图层 1"><rect class="cls-1" y="0.63" width="342" height="50.6"/><path class="cls-2" d="M184.17,2.36"/><path class="cls-2" d="M184.17,38.26"/><circle class="cls-3" cx="116.97" cy="43.97" r="7.25"/><line class="cls-4" x1="178.33" y1="44.28" x2="191.03" y2="44.28"/><line class="cls-2" x1="178.33" y1="44.28" x2="186.61" y2="44.28"/><polygon points="185.61 45.73 191.03 44.28 185.61 42.82 185.61 45.73"/><line class="cls-2" x1="151.05" y1="44.28" x2="159.32" y2="44.28"/><polygon points="158.33 45.73 163.75 44.28 158.33 42.82 158.33 45.73"/><circle class="cls-3" cx="251.97" cy="43.78" r="7.25"/><circle class="cls-5" cx="170.78" cy="43.97" r="7.25"/><circle class="cls-3" cx="224.77" cy="43.97" r="7.25"/><line class="cls-2" x1="232.02" y1="44.28" x2="240.29" y2="44.28"/><polygon points="239.3 45.73 244.72 44.28 239.3 42.82 239.3 45.73"/><line class="cls-2" x1="116.97" y1="36.06" x2="116.97" y2="20.55"/><polygon points="118.43 21.55 116.97 16.13 115.52 21.55 118.43 21.55"/><line class="cls-2" x1="90.03" y1="36.06" x2="90.03" y2="20.55"/><polygon points="91.48 21.55 90.03 16.13 88.58 21.55 91.48 21.55"/><line class="cls-2" x1="170.78" y1="36.06" x2="170.78" y2="20.55"/><polygon points="172.23 21.55 170.78 16.13 169.32 21.55 172.23 21.55"/><line class="cls-2" x1="224.77" y1="36.06" x2="224.77" y2="20.55"/><polygon points="226.22 21.55 224.77 16.13 223.31 21.55 226.22 21.55"/><line class="cls-2" x1="251.97" y1="36.06" x2="251.97" y2="20.55"/><polygon points="253.42 21.55 251.97 16.13 250.52 21.55 253.42 21.55"/><circle class="cls-3" cx="116.97" cy="8.07" r="7.25"/><circle class="cls-3" cx="90.03" cy="8.07" r="7.25"/><circle class="cls-3" cx="251.97" cy="7.88" r="7.25"/><circle class="cls-3" cx="170.78" cy="8.07" r="7.25"/><circle class="cls-3" cx="224.77" cy="8.07" r="7.25"/><circle class="cls-3" cx="90.03" cy="43.97" r="7.25"/><circle class="cls-3" cx="279.17" cy="43.83" r="7.25"/><line class="cls-2" x1="204.81" y1="44.28" x2="213.09" y2="44.28"/><polygon points="212.1 45.73 217.52 44.28 212.1 42.82 212.1 45.73"/><line class="cls-2" x1="259.22" y1="44.28" x2="267.49" y2="44.28"/><polygon points="266.5 45.73 271.92 44.28 266.5 42.82 266.5 45.73"/><line class="cls-2" x1="124.53" y1="43.97" x2="132.8" y2="43.97"/><polygon points="131.81 45.42 137.23 43.97 131.81 42.52 131.81 45.42"/><line class="cls-2" x1="97.28" y1="43.83" x2="105.55" y2="43.83"/><polygon points="104.56 45.28 109.98 43.83 104.56 42.38 104.56 45.28"/><circle class="cls-3" cx="62.83" cy="43.97" r="7.25"/><line class="cls-2" x1="70.08" y1="43.83" x2="78.35" y2="43.83"/><polygon points="77.36 45.28 82.78 43.83 77.36 42.38 77.36 45.28"/><image width="36" height="46" transform="translate(114.63 4.88) scale(0.13)" xlink:href="s_i.png"/><image width="39" height="46" transform="translate(168.33 5.22) scale(0.13)" xlink:href="s_j.png"/><image width="42" height="46" transform="translate(222.03 5.22) scale(0.13)" xlink:href="s_k.png"/><image width="95" height="40" transform="translate(56.89 41.33) scale(0.12)" xlink:href="start.png"/><image width="86" height="42" transform="translate(273.56 41.23) scale(0.13)" xlink:href="stop.png"/><image width="36" height="46" transform="translate(114.63 41.28) scale(0.13)" xlink:href="cy_i.png"/><image class="cls-6" width="39" height="46" transform="translate(168.33 41.28) scale(0.13)" xlink:href="cy_j.png"/><image width="42" height="46" transform="translate(222.4 41.28) scale(0.13)" xlink:href="cy_k.png"/><use transform="translate(194.92 43.75) scale(0.13)" xlink:href="#image"/><line class="cls-7" x1="218.4" y1="17.45" x2="218.4" y2="27.25"/><line class="cls-8" x1="242.8" y1="34.26" x2="214.67" y2="34.26"/><line class="cls-7" x1="211.17" y1="34.26" x2="179.55" y2="34.26"/><polygon class="cls-9" points="181.03 32.08 172.9 34.26 181.03 36.44 181.03 32.08"/><line class="cls-7" x1="246.54" y1="17.39" x2="246.54" y2="27.18"/><line class="cls-7" x1="239.3" y1="34.26" x2="211.17" y2="34.26"/><path class="cls-7" d="M246.54,27.18a7.16,7.16,0,0,1-7.24,7.08"/><path class="cls-7" d="M218.4,27.18a7.16,7.16,0,0,1-7.24,7.08"/><line class="cls-10" x1="161.75" y1="24.03" x2="161.75" y2="28.59"/><polygon class="cls-11" points="159.57 25.52 161.75 17.39 163.93 25.52 159.57 25.52"/><line class="cls-8" x1="166.51" y1="34.26" x2="84.97" y2="34.26"/><line class="cls-10" x1="168.33" y1="34.26" x2="86.78" y2="34.26"/><path class="cls-10" d="M161.75,28.59a5.54,5.54,0,0,0,5.4,5.67"/><use transform="translate(141.14 43.76) scale(0.13)" xlink:href="#image"/><line class="cls-10" x1="108.38" y1="24.03" x2="108.38" y2="28.59"/><polygon class="cls-11" points="106.2 25.52 108.38 17.39 110.55 25.52 106.2 25.52"/><path class="cls-10" d="M108.37,28.59a5.54,5.54,0,0,0,5.4,5.67"/><line class="cls-10" x1="81.38" y1="24.03" x2="81.38" y2="28.59"/><polygon class="cls-11" points="79.2 25.52 81.38 17.39 83.55 25.52 79.2 25.52"/><path class="cls-10" d="M81.37,28.59a5.54,5.54,0,0,0,5.4,5.67"/></g></g></svg>