<svg xmlns="http://www.w3.org/2000/svg" viewBox="0 0 342 57.67"><defs><style>.cls-1{fill:#fff;}.cls-2,.cls-3,.cls-4,.cls-5{fill:none;stroke-miterlimit:10;}.cls-2{stroke:#4d4d4d;stroke-dasharray:1 1;}.cls-2,.cls-3{stroke-width:0.5px;}.cls-3,.cls-4{stroke:#000;}.cls-4,.cls-5{stroke-width:1.25px;}.cls-5{stroke:#fff;}.cls-6{font-size:6px;fill:#4d4d4d;font-family:MicrosoftYaHei, Microsoft YaHei;}</style></defs><title>hmm-model</title><g id="图层_2" data-name="图层 2"><g id="图层_1-2" data-name="图层 1"><rect class="cls-1" width="342" height="57.15"/><rect class="cls-2" x="76.91" y="0.27" width="161.5" height="21.25" rx="6.65" ry="6.65"/><path class="cls-3" d="M157.35,5.38"/><path class="cls-3" d="M157.35,41.28"/><circle class="cls-4" cx="90.16" cy="46.99" r="7.25"/><circle class="cls-4" cx="117.1" cy="46.99" r="7.25"/><circle class="cls-4" cx="171.2" cy="46.99" r="7.25"/><circle class="cls-4" cx="225.16" cy="46.8" r="7.25"/><circle class="cls-4" cx="143.96" cy="46.99" r="7.25"/><circle class="cls-4" cx="197.95" cy="46.99" r="7.25"/><line class="cls-3" x1="97.41" y1="46.99" x2="105.42" y2="46.99"/><polygon points="104.43 48.44 109.85 46.99 104.43 45.54 104.43 48.44"/><line class="cls-3" x1="124.35" y1="46.99" x2="132.28" y2="46.99"/><polygon points="131.29 48.44 136.71 46.99 131.29 45.54 131.29 48.44"/><line class="cls-3" x1="151.21" y1="46.99" x2="159.52" y2="46.99"/><polygon points="158.53 48.44 163.95 46.99 158.53 45.54 158.53 48.44"/><line class="cls-3" x1="178.45" y1="46.99" x2="186.27" y2="46.99"/><polygon points="185.28 48.44 190.7 46.99 185.28 45.54 185.28 48.44"/><line class="cls-3" x1="205.2" y1="46.99" x2="213.48" y2="46.87"/><polygon points="212.51 48.33 217.91 46.8 212.46 45.43 212.51 48.33"/><rect class="cls-2" x="76.3" y="36.17" width="161.5" height="21.25" rx="6.65" ry="6.65"/><line class="cls-5" x1="90.16" y1="39.08" x2="90.16" y2="27.16"/><polygon class="cls-1" points="93.79 29.63 90.16 16.08 86.53 29.63 93.79 29.63"/><line class="cls-5" x1="117.1" y1="39.08" x2="117.1" y2="27.16"/><polygon class="cls-1" points="120.73 29.63 117.1 16.08 113.47 29.63 120.73 29.63"/><line class="cls-5" x1="143.96" y1="39.08" x2="143.96" y2="27.16"/><polygon class="cls-1" points="147.59 29.63 143.96 16.08 140.33 29.63 147.59 29.63"/><line class="cls-5" x1="171.2" y1="39.08" x2="171.2" y2="27.16"/><polygon class="cls-1" points="174.83 29.63 171.2 16.08 167.57 29.63 174.83 29.63"/><line class="cls-5" x1="197.95" y1="39.08" x2="197.95" y2="27.16"/><polygon class="cls-1" points="201.58 29.63 197.95 16.08 194.32 29.63 201.58 29.63"/><line class="cls-5" x1="225.16" y1="39.08" x2="225.16" y2="27.16"/><polygon class="cls-1" points="228.79 29.63 225.16 16.08 221.52 29.63 228.79 29.63"/><line class="cls-3" x1="90.16" y1="39.08" x2="90.16" y2="23.57"/><polygon points="91.61 24.57 90.16 19.14 88.71 24.57 91.61 24.57"/><line class="cls-3" x1="117.1" y1="39.08" x2="117.1" y2="23.57"/><polygon points="118.56 24.57 117.1 19.14 115.65 24.57 118.56 24.57"/><line class="cls-3" x1="143.96" y1="39.08" x2="143.96" y2="23.57"/><polygon points="145.42 24.57 143.96 19.14 142.51 24.57 145.42 24.57"/><line class="cls-3" x1="171.2" y1="39.08" x2="171.2" y2="23.57"/><polygon points="172.65 24.57 171.2 19.14 169.75 24.57 172.65 24.57"/><line class="cls-3" x1="197.95" y1="39.08" x2="197.95" y2="23.57"/><polygon points="199.41 24.57 197.95 19.14 196.5 24.57 199.41 24.57"/><line class="cls-3" x1="225.16" y1="39.08" x2="225.16" y2="23.57"/><polygon points="226.61 24.57 225.16 19.14 223.7 24.57 226.61 24.57"/><circle class="cls-4" cx="90.16" cy="11.09" r="7.25"/><circle class="cls-4" cx="117.1" cy="11.09" r="7.25"/><circle class="cls-4" cx="171.2" cy="11.09" r="7.25"/><circle class="cls-4" cx="225.16" cy="10.89" r="7.25"/><circle class="cls-4" cx="143.96" cy="11.09" r="7.25"/><circle class="cls-4" cx="197.95" cy="11.09" r="7.25"/><text class="cls-6" transform="translate(242.41 50.64)">隐藏序列</text><text class="cls-6" transform="translate(242.41 12.89)">观测序列</text></g></g></svg>