<svg xmlns="http://www.w3.org/2000/svg" xmlns:xlink="http://www.w3.org/1999/xlink" viewBox="0 0 342 51.85"><defs><style>.cls-1{fill:#fff;}.cls-2,.cls-3{fill:none;stroke:#000;stroke-miterlimit:10;}.cls-2{stroke-width:0.5px;}.cls-3{stroke-width:1.25px;}</style></defs><title>hmm-pos-model</title><g id="图层_2" data-name="图层 2"><g id="图层_1-2" data-name="图层 1"><rect class="cls-1" y="0.63" width="342" height="50.6"/><path class="cls-2" d="M171.07,2.36"/><path class="cls-2" d="M171.07,38.26"/><circle class="cls-3" cx="103.88" cy="43.97" r="7.25"/><circle class="cls-3" cx="130.82" cy="43.97" r="7.25"/><circle class="cls-3" cx="238.87" cy="43.78" r="7.25"/><circle class="cls-3" cx="157.68" cy="43.97" r="7.25"/><circle class="cls-3" cx="211.67" cy="43.97" r="7.25"/><line class="cls-2" x1="218.92" y1="44.28" x2="227.19" y2="44.28"/><polygon points="226.2 45.73 231.62 44.28 226.2 42.82 226.2 45.73"/><line class="cls-2" x1="103.88" y1="36.06" x2="103.88" y2="20.55"/><polygon points="105.33 21.55 103.88 16.13 102.42 21.55 105.33 21.55"/><line class="cls-2" x1="130.82" y1="36.06" x2="130.82" y2="20.55"/><polygon points="132.27 21.55 130.82 16.13 129.37 21.55 132.27 21.55"/><line class="cls-2" x1="157.68" y1="36.06" x2="157.68" y2="20.55"/><polygon points="159.13 21.55 157.68 16.13 156.23 21.55 159.13 21.55"/><line class="cls-2" x1="211.67" y1="36.06" x2="211.67" y2="20.55"/><polygon points="213.12 21.55 211.67 16.13 210.22 21.55 213.12 21.55"/><line class="cls-2" x1="238.87" y1="36.06" x2="238.87" y2="20.55"/><polygon points="240.32 21.55 238.87 16.13 237.42 21.55 240.32 21.55"/><circle class="cls-3" cx="103.88" cy="8.07" r="7.25"/><circle class="cls-3" cx="130.82" cy="8.07" r="7.25"/><circle class="cls-3" cx="238.87" cy="7.88" r="7.25"/><circle class="cls-3" cx="157.68" cy="8.07" r="7.25"/><circle class="cls-3" cx="211.67" cy="8.07" r="7.25"/><circle class="cls-3" cx="76.93" cy="43.97" r="7.25"/><circle class="cls-3" cx="266.07" cy="43.83" r="7.25"/><image width="82" height="40" transform="translate(205.81 41.42) scale(0.14)" xlink:href="cy_n_1.png"/><image width="41" height="40" transform="translate(101.23 5.02) scale(0.14)" xlink:href="s_1.png"/><image width="41" height="40" transform="translate(127.89 5.21) scale(0.14)" xlink:href="s_2.png"/><image width="41" height="40" transform="translate(154.75 5.21) scale(0.14)" xlink:href="s_3.png"/><image width="45" height="40" transform="translate(235.66 5.21) scale(0.14)" xlink:href="s_n.png"/><image width="82" height="40" transform="translate(205.81 5.21) scale(0.14)" xlink:href="s_n_1.png"/><image width="95" height="40" transform="translate(70.99 41.28) scale(0.12)" xlink:href="start.png"/><image width="86" height="42" transform="translate(260.96 41.78) scale(0.12 0.12)" xlink:href="stop.png"/><image width="39" height="40" transform="translate(101.37 41.11) scale(0.14)" xlink:href="cy_1.png"/><image width="41" height="40" transform="translate(128.11 40.92) scale(0.14)" xlink:href="cy_2.png"/><image width="41" height="41" transform="translate(154.75 41.04) scale(0.14)" xlink:href="cy_3.png"/><image width="44" height="40" transform="translate(235.73 41.11) scale(0.14)" xlink:href="cy_n.png"/><line class="cls-2" x1="191.72" y1="44.28" x2="199.99" y2="44.28"/><polygon points="199 45.73 204.42 44.28 199 42.82 199 45.73"/><line class="cls-2" x1="246.12" y1="44.28" x2="254.39" y2="44.28"/><polygon points="253.4 45.73 258.82 44.28 253.4 42.82 253.4 45.73"/><line class="cls-2" x1="165.23" y1="44.28" x2="173.51" y2="44.28"/><polygon points="172.52 45.73 177.94 44.28 172.52 42.82 172.52 45.73"/><line class="cls-2" x1="137.95" y1="44.28" x2="146.22" y2="44.28"/><polygon points="145.23 45.73 150.65 44.28 145.23 42.82 145.23 45.73"/><line class="cls-2" x1="111.43" y1="43.97" x2="119.7" y2="43.97"/><polygon points="118.71 45.42 124.13 43.97 118.71 42.52 118.71 45.42"/><line class="cls-2" x1="84.18" y1="43.83" x2="92.46" y2="43.83"/><polygon points="91.47 45.28 96.89 43.83 91.47 42.38 91.47 45.28"/><image width="46" height="8" transform="translate(179.83 43.41) scale(0.22)" xlink:href="dots.png"/></g></g></svg>